<svg width="140" height="41" viewBox="0 0 140 41" fill="none" xmlns="http://www.w3.org/2000/svg">
<path d="M92.9944 10.3615C93.2317 10.2465 93.4766 10.1421 93.7278 10.0489C93.9638 9.98362 94.2052 9.93219 94.4502 9.89494C94.4241 9.99733 94.4291 10.0516 94.4023 10.0858C94.1105 10.4264 93.8397 10.7802 93.5111 11.0939C93.288 11.2645 93.0462 11.4179 92.7888 11.5522C92.7138 11.6041 92.6502 11.6662 92.6009 11.7358C92.5016 11.8598 92.4108 11.9914 92.3039 12.1167L92.2308 12.0909C92.2687 11.9969 92.3065 11.9029 92.3499 11.8086C93.0201 10.4593 93.0915 8.95764 92.5517 7.56562C92.4766 7.44407 92.3815 7.33157 92.2691 7.23132C92.2604 7.10135 92.2186 6.97423 92.1463 6.8582C92.074 6.74218 91.9729 6.63985 91.8495 6.55786L92.0388 7.28928C92.0177 7.2996 91.9876 7.29772 91.9627 7.30281L91.8287 6.9244C91.7134 7.28476 91.6256 7.65075 91.5658 8.02026C91.3832 9.00148 91.2911 9.98105 91.6363 10.9551C91.7153 11.1786 91.7629 11.4103 92.0679 11.5779C92.0709 11.3923 92.0878 11.2496 92.0712 11.1042C91.9295 9.9517 91.9457 8.79025 92.1196 7.64171C92.1563 7.49704 92.2066 7.35496 92.27 7.21673C92.226 8.05718 92.1668 8.90033 92.1452 9.74402C92.148 10.1024 92.1931 10.4598 92.2801 10.8112L92.555 9.11943L92.6493 9.12301C92.6486 9.22484 92.659 9.32601 92.6469 9.42396C92.5924 9.88243 92.5684 10.3473 92.4645 10.7968C92.3544 11.1442 92.2194 11.4859 92.0601 11.8201C92.041 11.8682 92.034 11.919 92.0395 11.9694L92.1208 13.0934C92.2761 12.9269 92.4569 12.7777 92.6587 12.6494C93.2039 12.3928 93.7696 12.1667 94.352 11.9727C95.0763 11.7423 95.8258 11.5704 96.5678 11.3763C96.7007 11.3422 96.8382 11.3224 96.9762 11.2952L97.0023 11.3628C96.7051 11.4628 96.4134 11.5743 96.1128 11.6619C95.091 11.9523 94.2808 12.5148 93.4492 13.0477C93.424 13.0608 93.4026 13.0783 93.3864 13.0988C93.3701 13.1194 93.3594 13.1425 93.355 13.1668C93.4305 13.7413 93.0779 14.2035 92.7535 14.6613C92.3754 15.2628 91.8155 15.7738 91.1273 16.1457C91.0626 16.1886 90.988 16.2202 90.9079 16.2385C90.4569 16.2648 90.3819 16.5209 90.2931 16.8214C90.1442 17.3236 89.9345 17.8129 89.7348 18.3516C90.1762 18.0632 90.5678 17.7969 90.9728 17.5451C91.5775 17.1613 92.3303 16.9685 93.095 17.0015C93.3292 17.0267 93.5545 17.0922 93.7561 17.1938C93.901 17.2553 93.8843 17.3508 93.7162 17.4115C92.4829 17.8569 91.2682 18.3358 90.0202 18.7412C89.8455 18.7957 89.6871 18.8803 89.5555 18.9892C89.424 19.0981 89.3223 19.2288 89.2572 19.3728C88.9415 19.9373 88.573 20.4805 88.2551 21.0697C88.4034 20.9975 88.5537 20.9242 88.6902 20.8317C89.7185 20.2057 90.9173 19.7947 92.1837 19.6337C92.4594 19.6052 92.7392 19.6166 93.0105 19.6673C93.2541 19.7067 93.2732 19.8437 93.0783 19.9742C91.9631 20.7208 90.8513 21.4681 89.5261 21.9725C88.6272 22.3139 88.4229 22.3404 87.5019 22.0624C87.3458 22.2424 87.1934 22.4276 87.02 22.6112C86.8465 22.7949 86.6926 22.9502 86.4869 23.1567C86.7581 23.1354 86.9828 23.1132 87.207 23.0983C87.2451 23.0916 87.2846 23.0915 87.3229 23.0981C87.3611 23.1047 87.3973 23.1178 87.429 23.1366C87.4608 23.1554 87.4874 23.1795 87.5071 23.2072C87.5269 23.235 87.5393 23.2658 87.5436 23.2977C87.7113 23.9241 87.2316 24.9344 86.6017 25.2911C86.2244 25.4776 85.7734 25.5368 85.3429 25.4563C85.049 25.4225 84.7556 25.3697 84.5192 25.3362C84.4591 25.4748 84.3902 25.6108 84.3131 25.7435C83.9106 26.3386 83.4849 26.9214 83.0968 27.5166C82.9701 27.7668 82.8701 28.0256 82.7979 28.2901L82.8845 28.3423C83.1612 28.1508 83.4548 27.9746 83.7099 27.7653C84.099 27.4481 84.4666 27.1132 84.8342 26.7782C85.0509 26.5589 85.3428 26.398 85.6724 26.3165C86.0019 26.2349 86.354 26.2363 86.6834 26.3205C86.9531 26.3802 87.236 26.3909 87.5117 26.4312C87.7874 26.4715 87.8569 26.5792 87.6506 26.7294C87.3672 26.9501 87.0453 27.1349 86.6954 27.2776C85.8046 27.5986 84.8877 27.8638 83.9877 28.168C83.9343 28.1959 83.8883 28.2322 83.8523 28.2748C83.8163 28.3175 83.7911 28.3657 83.7781 28.4165C83.5047 29.4973 82.7505 30.454 81.6628 31.0999C80.652 31.7296 80.0631 32.6091 79.2977 33.3716L79.3369 33.4257C79.4085 33.4089 79.4787 33.3881 79.5469 33.3635C80.7705 32.885 82.0026 32.4024 83.2195 31.9224C83.4054 31.8654 83.574 31.7759 83.7137 31.6601C83.8534 31.5444 83.9608 31.4051 84.0286 31.2518L83.8296 31.3489L83.7104 31.3149C83.7648 31.22 83.8204 31.1267 83.8735 31.03C84.2075 30.4001 84.6914 29.8317 85.2969 29.3582C85.9024 28.8847 86.6173 28.5156 87.3997 28.2725C87.7248 28.1636 87.8448 28.242 87.8026 28.5317C87.764 28.8 87.656 29.0583 87.4857 29.2891C87.3154 29.5198 87.0869 29.7178 86.8154 29.8697C86.9384 29.7271 87.0716 29.5867 87.1853 29.4392C87.3177 29.2776 87.4312 29.106 87.5245 28.9269C87.5949 28.7472 87.6484 28.5633 87.6845 28.3768C86.7445 28.448 84.9827 29.6467 84.475 30.5315C84.949 30.2485 85.418 29.9703 85.889 29.6911L85.9662 29.7738C85.4866 30.0926 84.9998 30.4173 84.5265 30.733L84.5544 30.7713L85.7613 30.1829L85.7942 30.2283C85.5413 30.3775 85.285 30.526 85.0067 30.6877C85.4239 30.6543 85.803 30.6276 86.1787 30.5884C86.2471 30.5728 86.3092 30.5425 86.3587 30.5007C86.9155 30.1065 87.4773 29.7193 88.0206 29.3105C88.1003 29.2504 88.1226 29.131 88.1592 29.0352C88.2904 28.6786 88.4034 28.3167 88.5527 27.9654C88.865 27.2301 89.5174 26.6832 90.127 26.1169C90.1638 26.0871 90.2088 26.0651 90.2583 26.0529C90.2795 26.0426 90.3184 26.0567 90.3463 26.0596C90.4367 26.4569 90.1117 27.1747 89.2668 28.4481C89.7258 28.0614 90.1663 27.6886 90.6147 27.3189C91.1679 26.8605 91.7472 26.4223 92.2775 25.9442C92.6105 25.619 92.9187 25.2772 93.2005 24.9207C93.2197 24.8895 93.2299 24.8551 93.2304 24.8201C93.2308 24.7851 93.2215 24.7505 93.2031 24.7188C92.6261 23.8834 92.4733 22.8957 92.7781 21.971C92.9573 21.3407 93.1175 20.708 93.2904 20.069C93.3016 20.0302 93.3225 19.9938 93.3518 19.962C93.3811 19.9303 93.4181 19.9039 93.4605 19.8846C93.4986 19.866 93.635 19.9435 93.6679 20.0007C93.7883 20.1581 93.8696 20.3334 93.9073 20.5165C93.9213 20.9074 93.9093 21.2985 93.8714 21.6882C93.8092 22.547 93.736 23.4064 93.667 24.2637C93.6661 24.314 93.67 24.3642 93.6785 24.4139C93.7353 24.3832 93.7887 24.3484 93.8382 24.3101C94.4411 23.7503 95.0405 23.1882 95.6363 22.624C95.6647 22.596 95.6958 22.536 95.6772 22.5143C95.466 22.2231 95.5562 21.8653 95.2638 21.5688C94.9868 21.2517 94.867 20.8603 94.9285 20.4742C94.9406 20.3763 95.0696 20.2142 95.1449 20.2153C95.2162 20.2205 95.2852 20.2392 95.3464 20.27C95.4076 20.3008 95.4592 20.3429 95.4972 20.3929C95.6265 20.6413 95.7389 20.8953 95.8341 21.1539C96.4394 20.6487 97.0464 20.138 97.6763 19.6115C97.6067 19.5156 97.4941 19.384 97.4082 19.2418C96.6037 17.8756 96.7589 16.5324 97.5587 15.2126C97.6425 15.1249 97.7441 15.0498 97.8591 14.9906C97.9397 15.0722 98.0021 15.1649 98.0433 15.2643C98.1889 16.2555 98.3344 17.2466 98.4597 18.2335C98.4824 18.4585 98.434 18.7039 98.4685 18.9609C98.5681 18.8252 98.6576 18.6846 98.7365 18.54C98.8777 18.2209 98.9754 17.8854 99.1394 17.5741C99.195 17.4769 99.2073 17.3666 99.1742 17.2625C99.1411 17.1583 99.0646 17.0668 98.9581 17.004C98.8745 16.952 98.8131 16.8796 98.7828 16.7972C98.7524 16.7149 98.7547 16.6268 98.7892 16.5458C98.9063 16.2527 99.0698 15.9842 99.2249 15.7079C99.2827 15.6019 99.3645 15.5053 99.4596 15.3716C99.5398 15.455 99.595 15.5526 99.6206 15.6566C99.6462 15.7606 99.6415 15.868 99.607 15.9701C99.5638 16.1753 99.5015 16.3779 99.4426 16.5931C99.7164 16.2236 99.9871 15.8698 100.242 15.5259C98.5532 14.3076 98.4276 12.7828 98.9262 11.1306L98.9351 11.1074C99.0333 10.9226 99.0936 10.6501 99.3744 10.6737C99.5516 10.6888 99.7385 10.8951 99.8544 11.051C100.478 11.8534 100.856 12.767 100.957 13.7139C100.985 13.965 100.982 14.2187 100.987 14.3483L101.339 13.4218C101.456 13.1287 101.57 12.8203 101.671 12.5163C101.681 12.4804 101.681 12.443 101.671 12.4069C101.662 12.3709 101.642 12.337 101.614 12.3079C100.854 11.8276 100.221 11.2242 99.7555 10.5352L99.3192 9.93357C99.8556 9.9856 100.366 10.1527 100.8 10.418C101.234 10.6834 101.576 11.0376 101.791 11.4452C102.069 11.1963 102.07 11.1063 101.807 10.8308C100.561 9.5555 99.8146 8.00025 99.6681 6.37174C99.6586 6.26778 99.6733 6.16151 99.6753 6.04962C100.044 6.11987 101.146 7.28701 101.584 7.98211C102.088 8.71484 102.324 9.55129 102.261 10.3899L102.35 10.3938C102.391 10.2443 102.44 10.0951 102.47 9.94333C102.565 9.52433 102.775 9.08678 102.707 8.68818C102.638 8.28958 102.263 7.94614 102.036 7.57318C101.908 7.36613 101.809 7.15018 101.679 6.89968C102.07 6.97317 102.325 7.19822 102.903 7.93153C102.97 7.76621 103.026 7.5979 103.071 7.42739C103.31 6.25565 104.196 5.4624 105.327 4.81941C105.426 4.78116 105.532 4.75655 105.641 4.74657C105.68 4.82888 105.703 4.91605 105.707 5.00441C105.447 6.44363 104.817 7.7563 103.612 8.83437C103.134 9.26576 102.613 10.1432 102.359 10.9558C103.03 10.0552 104.027 9.46993 105.186 8.92613L105.167 9.32257C105.707 9.27654 106.256 9.21909 106.792 9.19146C106.907 9.18472 107.028 9.25586 107.15 9.29051C107.09 9.37465 107.02 9.45389 106.941 9.5272C106.506 9.85245 106.094 10.2091 105.501 10.3473C105.275 10.4004 105.047 10.441 104.801 10.4899C104.146 11.5623 103.546 12.6878 101.946 13.0619L101.862 13.0132C101.914 12.9266 101.962 12.8392 102.016 12.7543L102.199 12.4692C102.154 12.4597 102.108 12.4582 102.063 12.465C102.018 12.4717 101.975 12.4865 101.938 12.5082C101.901 12.53 101.87 12.5582 101.847 12.5909C101.825 12.6235 101.811 12.6599 101.808 12.6974L101.262 14.3469C101.198 14.5038 101.162 14.6674 101.155 14.8329C101.542 14.5759 101.907 14.3274 102.285 14.0745C102.405 13.9948 102.522 13.9116 102.651 13.8396C102.829 13.7383 102.935 13.7976 102.928 13.9616C102.91 14.1442 102.88 14.3258 102.839 14.5057C103.712 14.1958 104.588 14.2146 105.489 14.2948C105.35 14.4992 103.294 14.9281 102.67 14.9018C102.057 16.0835 101.248 17.1458 99.7495 17.7157C99.6395 17.7454 99.527 17.7686 99.413 17.7853C99.5312 17.5531 99.6051 17.2598 99.6825 17.2598C100.023 17.2517 100.062 17.0204 100.179 16.8737C100.476 16.4928 100.712 16.0665 101.02 15.685C101.362 15.2634 101.755 14.8733 102.126 14.4682L102.224 14.5243L100.102 17.2962C101.146 17.1081 102.835 14.9557 102.739 13.9572C102.156 14.3592 101.595 14.7509 101.025 15.1513C100.974 15.176 100.987 15.288 101.003 15.3534C101.058 15.5883 100.978 15.6793 100.709 15.6196C100.631 15.5971 100.545 15.5994 100.47 15.6262C100.394 15.653 100.334 15.7023 100.3 15.7643C99.9057 16.2301 99.6118 16.7487 99.4316 17.2971C99.2145 18.0214 98.9694 18.7663 98.3435 19.3853C99.8307 18.717 101.407 18.626 103.077 18.8339C103.025 18.8924 103 18.9493 102.949 18.974C101.932 19.5089 100.77 19.8321 99.5651 19.9157C99.4933 19.9236 99.4204 19.9208 99.3498 19.9074C99.2876 19.8928 99.2002 19.8552 99.1876 19.8141C99.1878 19.7862 99.1964 19.7588 99.2127 19.7344C99.229 19.7099 99.2525 19.6893 99.281 19.6742C99.6209 19.4964 99.9802 19.3449 100.354 19.2217C100.823 19.1153 101.3 19.035 101.782 18.9812C101.828 18.9804 101.875 18.9873 101.918 19.0017C101.961 19.0161 101.999 19.0376 102.032 19.0648C101.147 19.2391 100.217 19.2534 99.4412 19.7212C99.9196 19.8868 101.951 19.3921 102.702 18.9176C102.277 18.9051 101.914 18.8863 101.549 18.8849C100.831 18.8543 100.114 18.9554 99.4506 19.1808C99.3223 19.2373 99.2259 19.3325 99.1817 19.4464C99.0216 19.8961 98.8927 20.353 98.7955 20.8148C98.6181 21.7558 97.4016 22.5564 96.3182 22.6196C96.17 22.6226 96.0255 22.658 95.8998 22.7222C95.774 22.7864 95.6715 22.8771 95.6029 22.9849C95.2073 23.5105 94.7421 23.9993 94.3315 24.4685C94.8043 24.3301 95.3136 24.155 95.8486 24.0311C96.7137 23.8289 97.5838 23.6572 98.4653 23.4895C98.6252 23.4611 98.8116 23.5284 98.9862 23.5518C98.9244 23.6887 98.8427 23.8188 98.7429 23.9395C98.2722 24.3532 97.6627 24.6429 96.9909 24.7724C96.3611 24.9088 95.7212 25.0126 95.0752 25.0831C94.8287 25.1193 94.5746 25.0996 94.3402 25.026C93.9451 24.8764 93.7031 25.0486 93.4624 25.2462C93.3111 25.3696 93.1766 25.5083 92.9757 25.6936C93.7513 25.5239 94.5514 25.4403 95.3548 25.4449C94.5354 26.1251 94.1779 27.0075 93.2267 27.5019C92.6369 27.8426 91.9098 27.9842 91.1949 27.8976C91.1269 27.8887 91.0621 27.8677 91.0049 27.836C90.9478 27.8043 90.8997 27.7627 90.8641 27.7142C90.855 27.6588 90.8624 27.6023 90.8857 27.5498C90.909 27.4973 90.9476 27.4503 90.9981 27.4129C91.6781 26.987 92.3762 26.5782 93.1018 26.1915C92.8979 26.357 92.6919 26.5235 92.4384 26.7273C93.1622 26.5633 93.6647 26.2168 94.1911 25.7808C94.0818 26.1952 92.8173 27.135 92.228 27.3066C92.5339 27.1198 92.8389 26.9357 93.1418 26.7526C92.3993 26.8314 91.4185 27.293 91.0477 27.7144C91.5802 27.8435 92.1514 27.8057 92.6503 27.6082C93.4199 27.3174 94.0547 26.8309 94.4612 26.2204C94.5983 26.0142 94.7633 25.8229 94.9157 25.6259L94.8842 25.5468C94.2143 25.6704 93.5343 25.7682 92.8727 25.935C92.6006 26.0362 92.3557 26.1805 92.1517 26.3596C91.6915 26.6854 91.2423 27.0224 90.8003 27.3654C90.5552 27.5486 90.3271 27.7466 90.1178 27.9577C89.3905 28.7135 88.4589 29.2786 87.5577 29.8737C87.4606 29.9302 87.3862 30.0092 87.344 30.1006C87.6392 29.9307 87.9421 29.7713 88.2285 29.5892C88.5149 29.4071 88.789 29.2121 89.0573 29.0128C89.3255 28.8136 89.5997 28.595 89.8689 28.3812C90.138 28.1674 90.3889 27.9719 90.6466 27.766L90.7124 27.8212C90.0567 28.3557 89.401 28.8901 88.7203 29.4414C89.8692 29.0891 91.0418 29.0579 92.2136 29.0296C92.4002 29.026 92.5867 29.0106 92.7636 28.9975C93.1485 28.9869 93.4308 28.9295 93.5071 28.5288C93.6008 28.2951 93.7868 28.094 94.0356 27.9573C94.6563 27.5516 95.4012 27.2938 96.1892 27.2119C96.4883 27.1817 96.5504 27.2317 96.4115 27.4552C96.1928 27.8097 95.9402 28.157 95.6529 28.5473C96.085 28.4594 96.4887 28.3877 96.8938 28.2822C96.9543 28.2669 97.0139 28.1316 97.0132 28.0517C96.8657 26.7971 97.7492 26.0195 98.8578 25.3469C98.914 25.3245 98.9735 25.3082 99.0348 25.2984C99.026 25.3883 99.0059 25.4771 98.9749 25.5636C98.7087 26.1253 98.4573 26.6916 98.1556 27.2399C97.9489 27.5679 97.7206 27.8864 97.4718 28.194C97.4372 28.1778 97.4612 28.1992 97.4718 28.194C98.26 27.9608 99.0461 27.7287 99.8258 27.4878C99.8773 27.4701 99.9238 27.444 99.9624 27.4109C100.001 27.3779 100.031 27.3387 100.05 27.2957C100.182 26.8609 100.592 26.6634 101.04 26.5137C101.791 26.2867 102.596 26.2024 103.395 26.2673C104.057 26.2959 104.722 26.2953 105.386 26.3138C105.473 26.3261 105.557 26.3487 105.635 26.3811C105.608 26.4583 105.563 26.5305 105.503 26.5941C104.133 27.5856 102.556 28.0901 100.706 27.939C100.473 27.9059 100.242 27.8608 100.015 27.8039C100.263 27.2606 100.798 27.1485 101.317 27.011C101.743 26.898 102.159 26.7683 102.488 26.6764C102.648 26.7116 102.733 26.7503 102.808 26.7423C103.371 26.6802 103.944 26.7368 104.475 26.9068C104.36 26.932 104.24 26.9424 104.121 26.9374C103.626 26.8418 103.113 26.83 102.613 26.9026C102.112 26.9752 101.636 27.1307 101.212 27.3597C101.083 27.4227 100.951 27.4867 100.822 27.5497L100.846 27.6255L101.797 27.5228L101.808 27.5812L100.511 27.7414C101.591 28.1591 104.482 27.4225 105.458 26.4559C105.288 26.4558 105.149 26.4576 105.006 26.4541C104.354 26.4367 103.702 26.4102 103.049 26.3956C102.268 26.3532 101.487 26.4776 100.783 26.7568C100.635 26.8091 100.502 26.8863 100.393 26.9835C100.284 27.0806 100.201 27.1955 100.149 27.3208C100.098 27.4217 100.003 27.5033 99.8823 27.5499C99.1744 27.8266 98.461 28.0918 97.7294 28.3635C99.1878 28.4584 100.574 28.929 101.691 29.7082C101.632 29.7489 101.599 29.7908 101.558 29.7969C99.9607 30.0609 98.4862 29.8615 97.2008 28.9823C97.0811 28.9125 96.9871 28.8171 96.9291 28.7064C96.8497 28.4666 96.6813 28.4873 96.4613 28.5356C95.906 28.6552 95.2914 28.6338 94.8264 29.0281C94.9843 29.0336 95.1414 29.0494 95.2963 29.0752C95.5534 29.128 95.8021 29.2056 96.0372 29.3064C96.0959 29.3418 96.143 29.3886 96.1742 29.4427C96.2054 29.4967 96.2197 29.5563 96.2158 29.6159C96.1758 29.666 96.1216 29.7074 96.0578 29.7364C95.994 29.7655 95.9225 29.7813 95.8495 29.7826C95.5286 29.7926 95.2076 29.7629 94.8971 29.6946C94.4746 29.5787 94.0653 29.4323 93.6741 29.257C93.4184 29.1456 93.4419 29.0516 93.6888 28.9336C93.7587 28.8995 93.8307 28.8644 93.9006 28.8303C93.9301 28.8185 93.9584 28.8047 93.9853 28.789C93.6986 28.8957 93.3883 29.0092 93.0814 29.1235L93.1794 29.1559L93.1915 29.2279L89.0989 29.6038L89.0941 29.6841C90.7508 29.9174 92.2711 30.4012 93.5506 31.2881L93.525 31.3713C93.431 31.377 93.3367 31.3789 93.2424 31.3769C92.1437 31.3037 91.0633 31.0988 90.0355 30.7688C89.571 30.6341 89.1801 30.3007 88.7933 30.0243C88.5759 29.8706 88.3287 29.7787 88.0682 29.9057C87.6701 30.0998 87.2935 30.3235 86.8458 30.5677L87.1277 30.6403C87.5775 30.7704 88.0311 30.8939 88.477 31.0305C88.6372 31.0775 88.7008 31.1574 88.5183 31.2653C88.2001 31.4511 87.8837 31.6431 87.5698 31.8386C86.7064 32.3752 85.7458 32.513 84.759 32.1562C84.5267 32.0476 84.2591 32.0014 83.9939 32.0241C83.7286 32.0467 83.4789 32.1371 83.2799 32.2824C81.6947 33.2582 79.8654 33.8738 78.0348 34.4758C77.4498 34.669 76.8651 34.8667 76.2788 35.0581C76.1561 35.1038 76.026 35.1347 75.8924 35.1497C75.8035 35.1576 75.7068 35.1151 75.6121 35.0952C75.652 35.0238 75.6701 34.9182 75.7454 34.8838C76.1462 34.6903 76.56 34.5153 76.9848 34.3599C77.8525 34.092 78.5956 33.6076 79.11 32.9746C79.6035 32.3469 80.1726 31.7603 80.6915 31.1438C80.7623 31.0597 80.7407 30.9192 80.7511 30.8032C80.7318 30.6029 80.7512 30.4015 80.8085 30.2064C81.0435 29.7655 81.4615 29.4079 81.9882 29.1971C82.094 29.1454 82.1587 29.0172 82.2338 28.9192C82.5784 28.4656 82.5722 28.0461 82.1118 27.6286C81.9302 27.44 81.8158 27.2138 81.7813 26.9754C81.5747 25.8724 81.4019 24.7646 81.227 23.658C81.2137 23.5842 81.2748 23.5025 81.3008 23.4237C81.3989 23.4536 81.4911 23.4954 81.5741 23.5477C82.1292 24.0088 82.332 24.6204 82.5983 25.201C82.8885 25.7846 83.0248 26.4116 82.9981 27.0407C83.3091 26.5426 83.6498 26.0575 84.019 25.5871C84.5302 24.9957 84.5148 24.4013 84.1749 23.7905C83.8873 23.2792 83.5709 22.7797 83.2782 22.2733C83.2299 22.162 83.1946 22.0472 83.1729 21.9305C83.3135 21.9589 83.4491 22.0023 83.5761 22.0597C83.886 22.2151 84.1674 22.4062 84.4118 22.6271C84.674 22.9486 84.9062 23.2859 85.1063 23.6362C85.3828 23.5274 85.7173 23.3997 86.0442 23.2616C86.1121 23.2231 86.1671 23.1711 86.204 23.1105C86.3751 22.8879 86.5343 22.6568 86.7112 22.4384C86.8495 22.2695 86.8579 22.1309 86.6467 21.9978C85.3722 21.177 84.7935 20.0075 84.3236 18.7945C84.239 18.5054 84.1964 18.2092 84.1968 17.9122C84.1935 17.8524 84.2749 17.7868 84.3157 17.7244C84.3882 17.7481 84.4544 17.7831 84.5108 17.8275C85.3012 18.7474 86.0968 19.6507 86.8566 20.5997C87.0763 20.8749 87.1473 21.2298 87.292 21.5676C87.9505 20.6707 88.6242 19.7553 89.3131 18.8215C88.1069 18.6165 87.4332 17.8852 86.709 17.2068C86.4224 16.9381 86.1389 16.6657 85.8566 16.395C85.7916 16.3264 85.7312 16.255 85.6756 16.181C87.413 16.4623 88.5118 17.357 89.5228 18.3913C89.5573 18.3582 89.5867 18.3217 89.6102 18.2826C89.8822 17.5669 90.1556 16.8531 90.4141 16.1346C90.4388 16.0279 90.4272 15.9176 90.3806 15.8157C90.0413 14.8459 90.0248 14.337 90.3024 13.4511C89.8273 13.2862 89.6776 12.9178 89.5479 12.5491C89.2113 11.574 88.8797 10.5964 88.5531 9.61638C88.506 9.46808 88.4839 9.31527 88.4874 9.1622C88.4906 9.12178 88.5046 9.08248 88.5285 9.04713C88.5525 9.01179 88.5857 8.98129 88.6258 8.95783C88.6639 8.93925 88.8029 8.99657 88.8519 9.04824C89.3037 9.51717 89.7513 9.98816 90.1714 10.4726C90.6543 10.9975 91.0017 11.5976 91.1924 12.236C91.4006 12.0212 91.5702 11.8559 91.7225 11.6825C91.7457 11.6301 91.7428 11.5721 91.7145 11.5213C91.2884 10.7014 91.1323 9.80468 91.262 8.9213C91.3011 8.7131 91.2694 8.49984 91.1704 8.30504C90.6708 7.32363 90.8285 6.3475 91.2416 5.38374C91.2497 5.36328 91.2793 5.34882 91.3543 5.28629C91.4283 5.46736 91.4876 5.62021 91.5553 5.76893C91.6437 5.96189 91.6415 6.14468 91.9347 6.29207C92.2279 6.43946 92.3058 6.74844 92.4689 6.99702C93.0104 7.81877 93.1368 8.70835 93.1019 9.62461L92.9948 10.3661L92.9001 11.0259C93.03 10.9264 93.1393 10.8102 93.2237 10.6817C93.3035 10.5743 93.3799 10.4663 93.4584 10.3572L93.5703 10.4206L92.8988 11.3522C93.5108 11.0539 93.7735 10.5387 94.1519 10.0805C93.8811 10.1417 93.6384 10.2458 93.3857 10.3242C93.2571 10.3506 93.1249 10.3635 92.9922 10.3626L92.9944 10.3615ZM87.0568 26.5114C86.9054 26.4884 86.7439 26.4751 86.6014 26.4407C86.3206 26.3718 86.022 26.3706 85.741 26.4373C85.4601 26.5039 85.2087 26.6356 85.0168 26.8166C84.8218 26.9825 84.6458 27.1627 84.4529 27.3275C84.2113 27.5397 83.9616 27.7488 83.7132 27.9596L83.766 27.9928C83.9613 27.8669 84.1414 27.7556 84.3139 27.6219C84.4029 27.5549 84.4409 27.56 84.639 27.5248C84.8073 27.4831 84.9668 27.4205 85.1119 27.3391C85.7618 27.0601 86.4113 26.782 87.0606 26.5048C87.1228 26.6656 87.0325 26.7545 86.8627 26.8208C86.1505 27.1113 85.44 27.4081 84.7316 27.7039C84.6215 27.7576 84.5199 27.8071 84.397 27.867L84.4426 27.9298C85.4122 27.6643 86.3445 27.315 87.2238 26.8878C87.3703 26.7956 87.5071 26.6934 87.6327 26.5823L87.0547 26.5124L87.0568 26.5114ZM91.3301 13.8329L91.3147 13.7247L91.209 13.7172L90.8703 15.3882L91.0212 15.4067L91.0785 14.9917C91.159 14.9095 91.2251 14.8185 91.275 14.7212C91.4583 14.1598 91.6657 13.6079 91.8058 13.0463C91.8745 12.6524 91.9159 12.2556 91.9298 11.8577C91.879 11.847 91.8283 11.8363 91.7784 11.8229L91.1216 12.6364C90.8804 12.6713 90.8524 12.8974 90.7648 13.077C90.715 13.1863 90.7164 13.3225 90.6383 13.4125C90.2629 13.8315 90.1383 14.6003 90.3711 15.0438L90.8365 13.6463L90.9278 13.6655C90.9214 13.704 90.9183 13.7433 90.9085 13.7811C90.7698 14.2972 90.6162 14.8087 90.5045 15.3305C90.494 15.5192 90.5127 15.7084 90.5602 15.8934C90.7212 15.2933 90.781 14.7001 90.9284 14.1207C91.0606 13.5422 91.2966 12.9833 91.6288 12.4623L91.7045 12.4797L91.3301 13.8329ZM85.8854 24.3705C86.1337 24.1715 86.3812 23.9753 86.625 23.7739L86.5604 23.7204C85.9024 23.9751 85.2964 24.2776 85.0453 24.8957C84.9684 24.9992 84.8916 25.1027 84.7948 25.2538C85.4211 25.3072 85.9766 25.4566 86.5052 25.1422C86.9992 24.8471 87.489 23.8389 87.3311 23.3683C87.3125 23.339 87.2854 23.3138 87.2523 23.295C87.2192 23.2762 87.181 23.2643 87.141 23.2603C86.5399 23.2851 85.9551 23.427 85.4349 23.6743C85.0524 23.877 84.7676 24.1826 84.6291 24.5392C84.7993 24.4774 84.8848 24.4452 84.9682 24.414L85.0099 24.4715L84.5582 24.805L84.657 24.882C84.7654 24.8097 84.8619 24.7262 84.944 24.6335C85.2426 24.1901 85.7314 23.8543 86.3155 23.6911C86.4511 23.6638 86.5905 23.6514 86.7302 23.6541L86.7596 23.7342C86.5302 24.0006 86.2305 24.221 85.8828 24.3788L85.8854 24.3705ZM96.9583 21.2337L96.6624 21.6399L96.7 21.6641C97.1214 21.2769 97.5416 20.888 97.963 20.5008L98.0436 20.5606L96.108 22.4365C96.9733 22.5033 98.1185 21.9285 98.4083 21.2255C98.6103 20.6207 98.7678 20.0064 98.8799 19.3859C98.623 19.4106 98.3838 19.5048 98.1999 19.6536C98.1681 19.6691 98.2566 19.8148 98.2885 19.8984C98.0375 20.1411 97.7797 20.3824 97.5147 20.6414C97.4788 20.6235 97.4222 20.585 97.4129 20.5919C97.0355 20.858 96.7422 21.1953 96.5581 21.5751C96.6916 21.4628 96.8239 21.3488 96.9583 21.2337V21.2337ZM100.49 14.5082C100.484 14.365 100.478 14.2781 100.477 14.2054C100.423 13.7734 100.407 13.3388 100.428 12.9051C100.481 12.4567 100.274 12.0925 100.069 11.7138C99.9537 11.5133 99.8234 11.319 99.6783 11.1322C99.592 11.0313 99.4968 10.9357 99.3935 10.8462C99.3035 10.9514 99.2089 11.0541 99.1237 11.1618C99.1015 11.2005 99.0859 11.2414 99.0772 11.2836C98.7608 12.2217 98.8095 13.2188 99.2165 14.1353C99.3979 14.5939 99.7592 14.9906 100.244 15.2632C100.319 15.3042 100.454 15.2764 100.563 15.28C100.565 15.1772 100.612 15.0554 100.56 14.9766C100.316 14.5883 99.9747 14.2283 99.7985 13.8233C99.4391 13.081 99.3338 12.2728 99.4938 11.4865C99.5146 11.4422 99.5436 11.401 99.58 11.3642C99.4863 12.4598 99.8089 13.5536 100.503 14.4947L100.49 14.5082ZM104.007 10.7661L104.078 10.812L102.3 12.7787C103.566 12.4939 104.955 10.3255 105.043 9.05263C104.66 9.28673 104.304 9.50013 103.956 9.71946C103.069 10.2467 102.412 10.9948 102.082 11.8535C102.06 11.8929 102.048 11.9355 102.047 11.9788C102.046 12.0221 102.056 12.0651 102.075 12.1054C102.095 12.1456 102.124 12.1823 102.161 12.2131C102.198 12.2439 102.242 12.2683 102.291 12.2848C102.756 11.4042 103.393 10.5924 104.177 9.88109C103.663 10.6671 102.915 11.3432 102.577 12.2163C103.054 11.7314 103.522 11.2388 104.007 10.7661ZM90.3213 13.331C90.6078 13.078 90.5038 12.9069 90.4048 12.7191C89.9952 11.9369 89.5974 11.1513 89.2039 10.3636C89.1638 10.2499 89.1369 10.1334 89.1236 10.0157L89.2006 9.99938L90.638 12.8627C90.8247 12.6182 91.0725 12.4975 90.9885 12.2434C90.6048 11.0543 89.6431 10.159 88.7035 9.1914C88.6948 9.2406 88.6916 9.29037 88.6938 9.34009C88.9665 10.5461 89.3705 11.73 89.9007 12.8775C90.0144 13.044 90.156 13.1967 90.3213 13.331ZM88.2427 31.166C87.2354 30.7576 86.0779 30.6795 85.0061 30.9476C84.832 30.9843 84.6689 31.0498 84.527 31.1401C84.385 31.2304 84.267 31.3436 84.1804 31.4729C85.2288 31.3023 86.2883 31.1798 87.3537 31.106L87.3725 31.2031C86.4107 31.3392 85.4489 31.4752 84.4575 31.6139L86.3623 31.7664L86.3541 31.8459L85.6658 31.8534L85.7544 31.9754C85.4794 31.9915 85.2319 31.9941 84.9844 32.0085C86.3201 32.4195 87.2951 31.8946 88.2338 31.1656L88.2427 31.166ZM103.323 8.83853C104.395 8.07988 105.662 5.77222 105.538 4.85797C105.499 4.86471 105.462 4.87575 105.427 4.89079C104.874 5.23841 104.34 5.59759 104.121 6.18106C104.03 6.44995 103.86 6.71706 103.752 6.99143C103.581 7.43126 103.433 7.87607 103.28 8.31668L103.38 8.34358L104.091 7.10707C104.324 6.7009 104.461 6.25396 104.843 5.91177C104.635 6.41466 104.414 6.90012 104.149 7.38537C103.885 7.87062 103.605 8.35858 103.327 8.83646L103.323 8.83853ZM86.9922 21.6877C87.0554 21.3705 86.9733 21.0447 86.7619 20.7733C86.1774 20.0504 85.5654 19.3409 84.964 18.6262L84.4225 17.9863C84.1775 18.8657 85.7253 21.3636 86.8531 21.8358C86.4614 21.1534 86.0482 20.4769 85.6002 19.8196C85.3776 19.5127 85.1 19.2326 84.8604 18.934C84.7987 18.8398 84.749 18.7407 84.7119 18.6382C85.6443 19.5762 86.4752 20.5519 86.9859 21.6908L86.9922 21.6877ZM82.7427 27.1746C82.8229 25.9059 82.2918 24.7982 81.4891 23.7426C81.4699 23.755 81.4546 23.7708 81.4444 23.789C81.4341 23.8071 81.4292 23.827 81.43 23.847C81.6072 24.8817 81.7704 25.9209 81.9629 26.953C82.0561 27.3368 82.2852 27.6899 82.6215 27.9678L82.3373 25.5407L82.4655 25.5278L82.7512 27.1705L82.7427 27.1746ZM87.7751 21.7475C88.0532 21.6331 88.2904 21.5175 88.5448 21.4336C89.8873 20.9845 91.233 20.548 92.5721 20.0982C92.7406 20.0256 92.8998 19.9393 93.0473 19.8406C91.848 19.408 88.065 20.9972 87.7751 21.7475ZM93.3337 24.5985L93.4454 24.5866C93.4321 24.3429 93.4373 24.0972 93.4032 23.8566C93.2946 23.0676 93.3143 22.2706 93.4616 21.4867C93.4787 21.3957 93.5149 21.3073 93.5469 21.2091L93.6145 21.2233L93.5017 22.534L93.6083 22.5387C93.6682 21.9218 93.7298 21.2993 93.78 20.6848C93.7956 20.571 93.7774 20.4557 93.7268 20.3488C93.6762 20.2419 93.5948 20.1466 93.4896 20.071L93.3679 20.567C93.1931 21.2588 92.9732 21.9396 92.8526 22.6427C92.7518 23.3194 92.9206 24.0056 93.3337 24.5985V24.5985ZM98.8444 23.621C98.0983 23.5763 94.7296 24.4326 94.3323 24.8056L97.699 24.1086C96.8183 24.6016 95.7346 24.6248 94.7238 24.9028C95.9487 25.1058 98.4602 24.3204 98.8507 23.6297L98.8444 23.621ZM97.785 19.4334C97.7303 18.8322 97.6249 18.185 97.629 17.5386C97.6194 17.0037 97.6985 16.4705 97.8639 15.9536C97.9619 15.6698 97.8634 15.4629 97.851 15.1928C96.9832 15.9723 96.7121 18.519 97.7766 19.4375L97.785 19.4334ZM101.888 10.8243L101.998 10.7942C101.991 10.7838 102.009 10.7609 102.004 10.7466C101.524 9.316 100.902 7.91952 100.145 6.57111C100.074 6.47621 99.9908 6.38783 99.8967 6.30751C99.859 6.37753 99.8447 6.45456 99.8551 6.53077C99.9011 7.2542 100.239 7.90154 100.626 8.5387C100.91 9.00472 101.169 9.48036 101.432 9.95392C101.592 10.2418 101.738 10.534 101.888 10.8243V10.8243ZM92.0216 20.5011C90.8731 20.8934 89.8851 21.5072 88.7143 21.8254C89.0595 21.6571 89.4249 21.5168 89.7755 21.36C90.1261 21.2032 90.451 21.0307 90.7877 20.8666L90.7561 20.823C89.7269 21.1784 88.6947 21.5375 87.6215 21.9073C88.1268 22.1614 88.4587 22.2238 88.9588 22.0083C89.9077 21.5977 90.8217 21.1309 91.7454 20.6853C91.8413 20.6297 91.9315 20.5676 92.0149 20.4997L92.0216 20.5011ZM91.7102 30.7502L91.6515 30.859L89.0059 29.9537C89.2906 30.3077 89.7143 30.5711 90.2061 30.6998C90.9633 30.8783 91.7302 31.0307 92.495 31.1842C92.7154 31.2163 92.9378 31.2379 93.1611 31.249C92.0926 30.5897 90.3235 29.9605 89.5933 29.9812L91.7102 30.7502V30.7502ZM90.111 18.5978C90.7021 18.3734 91.2872 18.1448 91.8787 17.9249C92.4702 17.705 93.0604 17.4952 93.6577 17.2795C92.6363 16.7247 90.6158 17.705 89.7933 18.6299C90.5429 18.0827 91.4721 17.7832 92.3756 17.4797C91.6196 17.8482 90.7637 18.079 90.111 18.5978V18.5978ZM97.1938 28.5774C97.2821 28.6004 97.3713 28.6206 97.4567 28.6474C98.3274 28.9311 99.2099 29.2231 100.081 29.5231C100.193 29.5823 100.292 29.6571 100.373 29.7442L100.339 29.8198C100.665 29.7908 100.989 29.76 101.379 29.7237C100.188 28.9511 98.7072 28.5454 97.1938 28.5774V28.5774ZM95.5406 27.606L95.6491 27.7042C95.1586 28.1226 94.6694 28.5428 94.1769 28.9623C94.3901 28.9481 94.7671 28.9106 94.7698 28.8314C94.8001 28.5688 95.0245 28.6412 95.1718 28.5953C95.2202 28.5811 95.2648 28.5594 95.3031 28.5313C95.712 28.215 96.0353 27.8314 96.2522 27.4054C95.1853 27.4322 93.8121 28.163 93.7086 28.8106C94.3467 28.3863 94.9348 27.9957 95.5262 27.6059L95.5406 27.606ZM82.9357 32.2543C82.7752 32.3019 82.6948 32.3174 82.6085 32.3525C81.5593 32.7554 80.513 33.1663 79.4707 33.5588C79.3132 33.6022 79.1507 33.6323 78.9857 33.6488L79.0971 33.257C78.4466 34.2137 77.2182 34.409 76.2015 34.8645C77.2852 34.6832 81.7775 32.9417 82.9463 32.2492L82.9357 32.2543ZM88.9669 28.4574C89.5662 27.9599 90.2857 26.6202 90.2131 26.2237C89.3527 26.9145 88.3889 28.3639 88.3822 29.0186L89.0944 28.0247L89.173 28.0619L88.9669 28.4574ZM90.9634 16.0226C92.0386 15.5291 93.3184 13.9305 93.176 13.339C92.2348 13.8946 91.8487 14.3661 91.792 15.0546C92.0271 14.7346 92.2457 14.4392 92.4634 14.1466L92.569 14.2014C92.3381 14.5075 92.1271 14.8251 91.8684 15.1165C91.6096 15.4078 91.2687 15.7203 90.9672 16.0278L90.9634 16.0226ZM98.0286 19.2792C98.5414 18.2315 98.1396 17.1835 98.0132 16.1358C97.738 17.171 97.7433 18.2441 98.0286 19.2792V19.2792ZM100.41 10.7069L100.475 10.6613L101.653 11.824C101.725 11.22 100.47 10.1536 99.7351 10.2147C100.468 11.2733 101.315 12.0809 101.79 12.1395C101.309 11.6659 100.715 11.2689 100.41 10.7069V10.7069ZM91.3346 8.31001C91.4331 7.7899 91.4817 7.32723 91.6071 6.8837C91.7475 6.3975 91.4803 5.9896 91.3363 5.54997C91.0219 6.44436 90.8501 7.33771 91.3324 8.31104L91.3346 8.31001ZM82.1752 29.3443C81.8822 29.4398 81.6181 29.5863 81.4008 29.7737C81.1835 29.9611 81.0182 30.185 80.9162 30.4301C80.8779 30.5236 80.8767 30.6248 80.9127 30.7192C80.9487 30.8135 81.0201 30.8963 81.1166 30.9555C81.3438 30.4269 81.5008 29.9043 81.9747 29.5105L82.0782 29.5544C81.808 30.0473 81.5411 30.5408 81.2436 31.0871C81.9981 30.8114 82.3951 30.023 82.1689 29.3356L82.1752 29.3443ZM97.856 26.4631L97.9701 26.4901L97.4055 27.818L97.5158 27.8516C98.1933 27.205 98.1267 26.2674 98.7481 25.5986C97.7528 26.0838 96.9832 27.2001 97.1811 27.7102C97.386 27.3248 97.6155 26.8943 97.8462 26.4655L97.856 26.4631ZM83.4265 22.1656C83.6498 22.517 83.8753 22.8319 84.0602 23.1619C84.2451 23.4919 84.3977 23.8447 84.5682 24.1983C85.136 23.6099 84.669 22.7565 83.4227 22.1604L83.4265 22.1656ZM102.079 10.3397C102.162 9.11889 101.563 8.15507 100.73 7.27039L102.079 10.3397ZM98.1307 19.9139L98.0637 19.8215C97.9465 19.8338 97.7883 19.8094 97.7125 19.8629C97.2978 20.1579 96.8969 20.4627 96.5097 20.7773C96.0948 21.1141 95.7889 21.4946 95.8616 22.0138C95.8645 22.1384 95.851 22.2629 95.8213 22.3851L95.9131 22.4088C96.157 21.2868 96.9922 20.5138 98.1188 19.9174L98.1307 19.9139ZM82.87 29.3973L82.7915 29.3483L83.6187 28.3786L83.5195 28.3207C83.3681 28.4677 83.2154 28.6129 83.0649 28.7571C82.9144 28.9013 82.7779 29.041 82.6328 29.1849L82.548 29.1271L83.1667 28.4785L83.0649 28.4172C82.8503 28.6706 82.5295 28.9001 82.4476 29.1784C82.3422 29.539 82.4262 29.9394 82.4312 30.3099C82.8703 29.959 83.3704 29.2337 83.4099 28.8415C83.2279 29.0411 83.065 29.2197 82.9009 29.3965L82.87 29.3973ZM105.233 9.96581L105.209 9.90904L106.332 9.48184L106.37 9.53415C106.002 9.75617 105.635 9.979 105.27 10.2027C106.005 10.1534 106.433 9.72039 106.924 9.32277C106.488 9.32014 106.053 9.36108 105.628 9.44471C105.054 9.57363 104.928 9.75998 104.941 10.2991C105.14 10.1784 105.328 10.0657 105.573 9.91777L105.254 9.95548L105.233 9.96581ZM100.072 29.7754L100.107 29.7088L97.294 28.7433C98.0147 29.4919 99.0655 29.6051 100.072 29.7754V29.7754ZM92.1508 13.9922C92.374 13.7773 92.5713 13.5452 92.74 13.299C92.9081 12.9611 93.2055 12.6777 93.5876 12.4916L94.0259 12.2779C93.0552 12.4254 91.9439 13.13 92.1444 13.9953L92.1508 13.9922ZM89.3511 18.7039L89.3898 18.6071C88.962 18.3294 88.5279 18.0549 88.0996 17.7727C87.6714 17.4905 87.2563 17.2066 86.8336 16.9241C86.8022 16.9559 86.7709 16.9878 86.7382 17.0178L88.4984 18.3265L88.2258 18.247L88.1871 18.3319L89.3206 18.7093L89.3511 18.7039ZM86.3656 16.4961L89.0325 18.2172L89.0919 18.1528C88.2556 17.4937 87.4986 16.7463 86.3656 16.4961V16.4961ZM94.3705 29.3518L94.3543 29.4164C94.8097 29.603 95.3145 29.693 95.8222 29.6779C95.9047 29.6645 95.9842 29.6409 96.058 29.6078C96.0087 29.5398 95.9653 29.4524 95.8893 29.4186C95.4495 29.2396 94.9484 29.1911 94.4713 29.2814L95.09 29.5061L95.0675 29.5502L94.3557 29.359L94.3705 29.3518ZM95.1163 20.3024C94.9733 20.8442 95.1993 21.2745 95.4914 21.7127C95.724 21.3775 95.531 20.5817 95.1163 20.3024ZM103.064 8.33474C103.36 7.59225 103.655 6.85079 103.947 6.11036C103.327 6.76903 103.218 7.56329 103.064 8.33474ZM89.1157 29.4847L92.5478 29.1782C91.3973 29.1726 90.2306 29.1843 89.1157 29.4847ZM99.0746 16.9472L99.5131 15.643C99.0136 15.9738 98.792 16.6247 99.0746 16.9472ZM102.76 8.50425C102.895 8.06286 102.494 7.43014 101.979 7.21391L102.76 8.50425ZM100.525 12.8812L100.671 14.7975C100.841 14.1608 100.791 13.497 100.525 12.8812V12.8812ZM91.9573 13.2156L91.5204 14.5261C92.0446 14.1383 91.897 13.6344 91.9573 13.2156ZM88.7291 19.9606L88.6679 19.9315L87.5715 21.4431L87.6721 21.4909L88.7291 19.9606ZM100.362 8.31326L100.291 8.34836L101.162 9.81152L101.222 9.78261L100.362 8.31326ZM95.0445 23.5073L94.9756 23.4677C94.5873 23.8293 94.2023 24.1916 93.816 24.5522L93.9009 24.61L95.0445 23.5073V23.5073ZM91.213 15.351L91.3457 15.3996L91.7417 14.6613L91.6057 14.612L91.213 15.351ZM103.36 14.5089L103.371 14.6073C103.742 14.5657 104.112 14.5268 104.481 14.4862L104.466 14.3899C104.097 14.4305 103.728 14.4711 103.36 14.5089V14.5089ZM80.43 31.8425C80.6505 31.6406 80.8688 31.4398 81.0906 31.2396L80.9888 31.1665C80.6945 31.31 80.6302 31.6245 80.43 31.8425" fill="#525060"/>
<path d="M47.0037 10.6533C46.7663 10.5383 46.5215 10.4339 46.2703 10.3406C46.0343 10.2754 45.7928 10.2239 45.5479 10.1867C45.5739 10.2891 45.569 10.3433 45.5957 10.3776C45.8876 10.7181 46.1583 11.072 46.4869 11.3856C46.71 11.5563 46.9518 11.7097 47.2093 11.8439C47.2843 11.8958 47.3478 11.9579 47.3971 12.0276C47.4964 12.1515 47.5872 12.2831 47.6942 12.4084L47.7673 12.3827C47.7294 12.2887 47.6915 12.1947 47.6481 12.1004C46.9779 10.751 46.9065 9.24938 47.4464 7.85737C47.5214 7.73582 47.6165 7.62332 47.729 7.52307C47.7376 7.3931 47.7795 7.26597 47.8518 7.14995C47.9241 7.03393 48.0252 6.9316 48.1486 6.84961L47.9592 7.58103C47.9804 7.59135 48.0104 7.58947 48.0354 7.59456L48.1694 7.21614C48.2846 7.57651 48.3724 7.9425 48.4322 8.312C48.6149 9.29322 48.707 10.2728 48.3617 11.2469C48.2827 11.4703 48.2351 11.702 47.9301 11.8696C47.9271 11.6841 47.9103 11.5413 47.9268 11.396C48.0685 10.2435 48.0523 9.082 47.8784 7.93346C47.8417 7.78879 47.7915 7.64671 47.7281 7.50848C47.772 8.34893 47.8312 9.19208 47.8528 10.0358C47.85 10.3941 47.8049 10.7515 47.718 11.103L47.4431 9.41117L47.3487 9.41476C47.3494 9.51658 47.3391 9.61776 47.3512 9.71571C47.4056 10.1742 47.4296 10.639 47.5335 11.0886C47.6436 11.436 47.7787 11.7777 47.9379 12.1118C47.957 12.1599 47.964 12.2107 47.9586 12.2612L47.8772 13.3851C47.7219 13.2187 47.5411 13.0695 47.3393 12.9411C46.7942 12.6846 46.2285 12.4585 45.6461 12.2644C44.9218 12.034 44.1722 11.8622 43.4302 11.6681C43.2973 11.634 43.1598 11.6141 43.0218 11.587L42.9958 11.6545C43.293 11.7546 43.5847 11.8661 43.8852 11.9536C44.9071 12.244 45.7172 12.8066 46.5489 13.3394C46.574 13.3526 46.5954 13.37 46.6117 13.3906C46.6279 13.4111 46.6386 13.4343 46.6431 13.4585C46.5675 14.033 46.9202 14.4952 47.2445 14.9531C47.6226 15.5545 48.1826 16.0656 48.8708 16.4375C48.9354 16.4803 49.01 16.5119 49.0901 16.5302C49.5411 16.5565 49.6162 16.8126 49.7049 17.1132C49.8538 17.6153 50.0636 18.1046 50.2633 18.6434C49.8218 18.355 49.4303 18.0886 49.0253 17.8369C48.4205 17.4531 47.6677 17.2602 46.903 17.2932C46.6688 17.3184 46.4436 17.384 46.242 17.4855C46.097 17.547 46.1138 17.6425 46.2818 17.7032C47.5151 18.1487 48.7299 18.6275 49.9779 19.0329C50.1526 19.0875 50.311 19.172 50.4425 19.2809C50.5741 19.3898 50.6758 19.5206 50.7408 19.6645C51.0565 20.2291 51.425 20.7722 51.7429 21.3615C51.5947 21.2892 51.4443 21.2159 51.3079 21.1234C50.2795 20.4975 49.0808 20.0864 47.8144 19.9255C47.5387 19.897 47.2588 19.9083 46.9875 19.9591C46.744 19.9985 46.7248 20.1355 46.9197 20.2659C48.0349 21.0125 49.1467 21.7599 50.4719 22.2643C51.3708 22.6057 51.5752 22.6321 52.4962 22.3542C52.6523 22.5341 52.8046 22.7193 52.9781 22.903C53.1515 23.0867 53.3055 23.242 53.5111 23.4484C53.2399 23.4272 53.0153 23.405 52.791 23.3901C52.7529 23.3833 52.7134 23.3833 52.6752 23.3899C52.6369 23.3965 52.6007 23.4096 52.569 23.4284C52.5373 23.4472 52.5107 23.4712 52.4909 23.499C52.4712 23.5267 52.4587 23.5576 52.4544 23.5895C52.2868 24.2158 52.7664 25.2262 53.3963 25.5828C53.7736 25.7694 54.2247 25.8286 54.6551 25.748C54.949 25.7143 55.2424 25.6614 55.4788 25.6279C55.539 25.7666 55.6078 25.9025 55.685 26.0353C56.0875 26.6304 56.5132 27.2132 56.9013 27.8083C57.0279 28.0585 57.1279 28.3173 57.2001 28.5819L57.1136 28.6341C56.8369 28.4425 56.5433 28.2664 56.2881 28.057C55.899 27.7399 55.5315 27.4049 55.1639 27.07C54.9472 26.8506 54.6552 26.6898 54.3257 26.6082C53.9961 26.5266 53.644 26.528 53.3147 26.6122C53.045 26.6719 52.762 26.6827 52.4863 26.723C52.2106 26.7632 52.1411 26.8709 52.3475 27.0211C52.6309 27.2419 52.9528 27.4266 53.3027 27.5694C54.1935 27.8903 55.1103 28.1555 56.0104 28.4598C56.0637 28.4876 56.1097 28.5239 56.1457 28.5666C56.1817 28.6093 56.2069 28.6574 56.22 28.7083C56.4934 29.789 57.2475 30.7457 58.3352 31.3917C59.3461 32.0213 59.935 32.9008 60.7004 33.6634L60.6612 33.7175C60.5895 33.7007 60.5194 33.6799 60.4512 33.6552C59.2276 33.1767 57.9954 32.6941 56.7786 32.2142C56.5926 32.1571 56.424 32.0676 56.2843 31.9519C56.1447 31.8361 56.0372 31.6968 55.9694 31.5436L56.1685 31.6406L56.2877 31.6067C56.2333 31.5117 56.1776 31.4185 56.1245 31.3218C55.7905 30.6918 55.3066 30.1234 54.7011 29.6499C54.0956 29.1764 53.3807 28.8073 52.5983 28.5643C52.2732 28.4554 52.1533 28.5338 52.1955 28.8234C52.234 29.0918 52.3421 29.35 52.5123 29.5808C52.6826 29.8116 52.9112 30.0096 53.1827 30.1615C53.0596 30.0189 52.9265 29.8784 52.8127 29.7309C52.6804 29.5693 52.5668 29.3978 52.4735 29.2186C52.4032 29.0389 52.3497 28.855 52.3135 28.6685C53.2536 28.7397 55.0154 29.9385 55.523 30.8232C55.049 30.5402 54.5801 30.262 54.109 29.9828L54.0318 30.0656C54.5114 30.3844 54.9982 30.709 55.4715 31.0247L55.4437 31.0631L54.2367 30.4747L54.2038 30.52C54.4567 30.6693 54.713 30.8178 54.9913 30.9794C54.5742 30.946 54.1951 30.9194 53.8194 30.8802C53.7509 30.8645 53.6888 30.8343 53.6394 30.7924C53.0826 30.3983 52.5207 30.0111 51.9774 29.6022C51.8978 29.5422 51.8755 29.4227 51.8389 29.327C51.7077 28.9704 51.5947 28.6084 51.4453 28.2571C51.133 27.5219 50.4807 26.9749 49.871 26.4087C49.8343 26.3788 49.7892 26.3569 49.7397 26.3447C49.7186 26.3343 49.6797 26.3484 49.6518 26.3513C49.5614 26.7487 49.8863 27.4664 50.7313 28.7398C50.2722 28.3532 49.8318 27.9804 49.3833 27.6107C48.8302 27.1522 48.2509 26.714 47.7205 26.236C47.3876 25.9107 47.0793 25.5689 46.7975 25.2125C46.7783 25.1813 46.7681 25.1469 46.7677 25.1119C46.7672 25.0769 46.7765 25.0422 46.7949 25.0106C47.372 24.1751 47.5247 23.1875 47.22 22.2627C47.0407 21.6325 46.8805 20.9997 46.7076 20.3608C46.6964 20.322 46.6755 20.2855 46.6463 20.2538C46.617 20.222 46.58 20.1957 46.5376 20.1764C46.4994 20.1578 46.363 20.2352 46.3302 20.2924C46.2098 20.4498 46.1284 20.6251 46.0908 20.8082C46.0767 21.1991 46.0887 21.5903 46.1267 21.9799C46.1889 22.8387 46.2621 23.6981 46.331 24.5555C46.3319 24.6057 46.3281 24.6559 46.3196 24.7057C46.2628 24.6749 46.2093 24.6402 46.1598 24.6018C45.5569 24.042 44.9576 23.48 44.3617 22.9157C44.3333 22.8877 44.3023 22.8277 44.3208 22.8061C44.532 22.5149 44.4419 22.157 44.7343 21.8606C45.0112 21.5434 45.1311 21.152 45.0695 20.766C45.0575 20.668 44.9285 20.506 44.8532 20.5071C44.7818 20.5122 44.7128 20.5309 44.6516 20.5617C44.5905 20.5926 44.5389 20.6346 44.5008 20.6846C44.3716 20.933 44.2591 21.1871 44.1639 21.4456C43.5586 20.9405 42.9516 20.4298 42.3217 19.9032C42.3913 19.8073 42.5039 19.6757 42.5898 19.5335C43.3944 18.1673 43.2392 16.8242 42.4394 15.5044C42.3556 15.4167 42.2539 15.3416 42.1389 15.2824C42.0583 15.3639 41.9959 15.4566 41.9548 15.5561C41.8092 16.5472 41.6636 17.5384 41.5383 18.5253C41.5156 18.7502 41.564 18.9957 41.5296 19.2527C41.43 19.117 41.3405 18.9764 41.2616 18.8317C41.1204 18.5127 41.0227 18.1771 40.8586 17.8658C40.803 17.7686 40.7907 17.6584 40.8239 17.5542C40.857 17.4501 40.9334 17.3586 41.0399 17.2957C41.1235 17.2437 41.1849 17.1713 41.2153 17.089C41.2457 17.0066 41.2434 16.9186 41.2088 16.8375C41.0918 16.5444 40.9283 16.2759 40.7732 15.9997C40.7154 15.8936 40.6335 15.7971 40.5384 15.6634C40.4582 15.7467 40.4031 15.8444 40.3775 15.9484C40.3519 16.0524 40.3565 16.1598 40.391 16.2618C40.4343 16.467 40.4965 16.6697 40.5554 16.8849C40.2817 16.5154 40.0109 16.1615 39.7559 15.8177C41.4448 14.5994 41.5704 13.0745 41.0719 11.4224L41.0629 11.3991C40.9647 11.2144 40.9044 10.9419 40.6236 10.9655C40.4464 10.9806 40.2595 11.1869 40.1436 11.3428C39.5201 12.1451 39.1417 13.0588 39.0407 14.0057C39.0134 14.2567 39.0157 14.5104 39.0106 14.6401L38.6593 13.7135C38.5422 13.4204 38.4277 13.112 38.3271 12.8081C38.317 12.7721 38.3169 12.7348 38.3266 12.6987C38.3364 12.6626 38.3559 12.6288 38.3837 12.5997C39.1444 12.1194 39.7771 11.5159 40.2426 10.8269L40.6789 10.2253C40.1424 10.2773 39.6316 10.4444 39.1976 10.7098C38.7637 10.9751 38.422 11.3294 38.2069 11.7369C37.9287 11.488 37.9281 11.398 38.1909 11.1226C39.4374 9.84725 40.1834 8.292 40.3299 6.66348C40.3394 6.55953 40.3248 6.45326 40.3228 6.34136C39.9537 6.41162 38.8521 7.57876 38.414 8.27386C37.9095 9.00658 37.6743 9.84304 37.7368 10.6817L37.648 10.6856C37.6074 10.536 37.558 10.3868 37.5276 10.2351C37.4331 9.81608 37.223 9.37852 37.2914 8.97993C37.3598 8.58133 37.735 8.23789 37.9625 7.86493C38.0897 7.65788 38.189 7.44193 38.3191 7.19143C37.9276 7.26492 37.6726 7.48997 37.0949 8.22328C37.0277 8.05795 36.9718 7.88965 36.9275 7.71914C36.6881 6.5474 35.8016 5.75414 34.6715 5.11116C34.5724 5.0729 34.4663 5.0483 34.3574 5.03832C34.3178 5.12063 34.2952 5.2078 34.2908 5.29616C34.5512 6.73538 35.1813 8.04805 36.3857 9.12612C36.8639 9.55751 37.3855 10.4349 37.6388 11.2476C36.9678 10.3469 35.9706 9.76168 34.8116 9.21788L34.8307 9.61431C34.2909 9.56829 33.7421 9.51083 33.2061 9.48321C33.0906 9.47647 32.9702 9.5476 32.8477 9.58226C32.9083 9.6664 32.9785 9.74564 33.0572 9.81895C33.492 10.1442 33.904 10.5008 34.4974 10.6391C34.7226 10.6922 34.9511 10.7328 35.1966 10.7816C35.8519 11.854 36.4516 12.9795 38.0518 13.3537L38.1359 13.3049C38.0841 13.2183 38.0356 13.131 37.9825 13.0461L37.7995 12.761C37.8438 12.7514 37.8901 12.75 37.9351 12.7567C37.9801 12.7635 38.0227 12.7782 38.0599 12.8C38.0972 12.8217 38.1281 12.8499 38.1506 12.8826C38.1731 12.9153 38.1866 12.9516 38.1901 12.9891L38.7365 14.6386C38.8001 14.7955 38.8358 14.9592 38.8426 15.1246C38.4557 14.8676 38.0914 14.6192 37.713 14.3663C37.5931 14.2866 37.4757 14.2034 37.3474 14.1314C37.1686 14.0301 37.0626 14.0893 37.0698 14.2533C37.0879 14.4359 37.1179 14.6175 37.1595 14.7975C36.2865 14.4875 35.4101 14.5064 34.5094 14.5865C34.6478 14.7909 36.7042 15.2198 37.328 15.1935C37.9413 16.3752 38.7502 17.4375 40.2486 18.0075C40.3586 18.0371 40.471 18.0604 40.585 18.0771C40.4669 17.8448 40.393 17.5515 40.3156 17.5515C39.9746 17.5435 39.936 17.3122 39.8188 17.1654C39.5218 16.7846 39.2864 16.3583 38.9784 15.9768C38.6364 15.5552 38.2429 15.1651 37.8717 14.7599L37.7738 14.816L39.8965 17.588C38.852 17.3998 37.1628 15.2475 37.2593 14.2489C37.8419 14.651 38.4033 15.0427 38.9728 15.443C39.0236 15.4678 39.0112 15.5798 38.9953 15.6452C38.9396 15.88 39.0198 15.971 39.2895 15.9113C39.3674 15.8888 39.4527 15.8912 39.5283 15.918C39.604 15.9448 39.6644 15.9941 39.6977 16.056C40.0923 16.5219 40.3862 17.0404 40.5665 17.5889C40.7836 18.3131 41.0287 19.0581 41.6545 19.6771C40.1673 19.0087 38.591 18.9177 36.9211 19.1257C36.9733 19.1841 36.998 19.241 37.0488 19.2658C38.0663 19.8006 39.2277 20.1238 40.433 20.2074C40.5047 20.2153 40.5777 20.2125 40.6483 20.1991C40.7104 20.1845 40.7979 20.1469 40.8105 20.1059C40.8103 20.078 40.8016 20.0506 40.7853 20.0261C40.769 20.0017 40.7456 19.981 40.7171 19.9659C40.3772 19.7881 40.0178 19.6367 39.6436 19.5135C39.1749 19.4071 38.6979 19.3267 38.2159 19.273C38.1696 19.2721 38.1235 19.2791 38.0805 19.2935C38.0375 19.3078 37.9986 19.3293 37.9661 19.3565C38.8514 19.5309 39.7812 19.5451 40.5569 20.0129C40.0784 20.1786 38.0468 19.6839 37.2961 19.2093C37.7208 19.1968 38.0841 19.178 38.4491 19.1766C39.1672 19.1461 39.884 19.2472 40.5475 19.4726C40.6757 19.529 40.7721 19.6242 40.8163 19.7382C40.9764 20.1878 41.1053 20.6447 41.2025 21.1066C41.38 22.0475 42.5964 22.8482 43.6798 22.9114C43.8281 22.9144 43.9725 22.9498 44.0983 23.014C44.224 23.0782 44.3265 23.1688 44.3952 23.2766C44.7907 23.8023 45.256 24.291 45.6666 24.7603C45.1938 24.6218 44.6845 24.4467 44.1495 24.3228C43.2844 24.1206 42.4143 23.949 41.5328 23.7813C41.3728 23.7528 41.1864 23.8201 41.0118 23.8436C41.0737 23.9804 41.1554 24.1106 41.2551 24.2313C41.7258 24.645 42.3354 24.9347 43.0071 25.0641C43.637 25.2006 44.2768 25.3043 44.9228 25.3749C45.1693 25.411 45.4234 25.3913 45.6578 25.3178C46.053 25.1681 46.2949 25.3404 46.5357 25.538C46.687 25.6613 46.8214 25.8 47.0224 25.9853C46.2468 25.8157 45.4467 25.732 44.6433 25.7366C45.4626 26.4169 45.8201 27.2993 46.7714 27.7937C47.3611 28.1344 48.0882 28.276 48.8032 28.1894C48.8711 28.1804 48.936 28.1594 48.9931 28.1277C49.0503 28.096 49.0983 28.0545 49.1339 28.006C49.1431 27.9505 49.1357 27.8941 49.1123 27.8416C49.089 27.7891 49.0504 27.7421 48.9999 27.7046C48.32 27.2788 47.6218 26.87 46.8963 26.4832C47.1002 26.6487 47.3061 26.8152 47.5596 27.019C46.8359 26.855 46.3333 26.5086 45.8069 26.0726C45.9162 26.487 47.1808 27.4268 47.77 27.5984C47.4641 27.4115 47.1591 27.2274 46.8562 27.0443C47.5988 27.1231 48.5796 27.5847 48.9503 28.0062C48.4178 28.1353 47.8467 28.0974 47.3478 27.9C46.5781 27.6091 45.9434 27.1226 45.5369 26.5121C45.3997 26.306 45.2347 26.1146 45.0824 25.9176L45.1139 25.8386C45.7838 25.9622 46.4638 26.06 47.1253 26.2267C47.3974 26.3279 47.6424 26.4722 47.8463 26.6513C48.3065 26.9772 48.7557 27.3142 49.1978 27.6571C49.4428 27.8404 49.6709 28.0384 49.8803 28.2495C50.6076 29.0053 51.5391 29.5703 52.4403 30.1654C52.5374 30.2219 52.6118 30.3009 52.6541 30.3924C52.3588 30.2225 52.056 30.063 51.7696 29.8809C51.4832 29.6988 51.209 29.5038 50.9408 29.3046C50.6725 29.1054 50.3983 28.8867 50.1292 28.6729C49.86 28.4591 49.6091 28.2636 49.3515 28.0578L49.2856 28.113C49.9413 28.6474 50.597 29.1819 51.2777 29.7332C50.1288 29.3808 48.9562 29.3497 47.7844 29.3213C47.5979 29.3177 47.4113 29.3023 47.2345 29.2893C46.8495 29.2786 46.5672 29.2213 46.491 28.8206C46.3972 28.5869 46.2113 28.3858 45.9625 28.249C45.3417 27.8434 44.5969 27.5856 43.8089 27.5037C43.5097 27.4735 43.4477 27.5235 43.5865 27.747C43.8053 28.1014 44.0578 28.4488 44.3452 28.839C43.9131 28.7511 43.5093 28.6794 43.1043 28.574C43.0437 28.5586 42.9842 28.4234 42.9848 28.3435C43.1323 27.0889 42.2489 26.3112 41.1402 25.6386C41.0841 25.6162 41.0246 25.5999 40.9633 25.5901C40.9721 25.68 40.9921 25.7689 41.0232 25.8553C41.2893 26.417 41.5407 26.9833 41.8424 27.5316C42.0491 27.8597 42.2774 28.1782 42.5262 28.4857C42.5609 28.4696 42.5368 28.4909 42.5262 28.4857C41.7381 28.2526 40.952 28.0204 40.1722 27.7796C40.1207 27.7619 40.0743 27.7357 40.0356 27.7027C39.997 27.6696 39.967 27.6304 39.9476 27.5874C39.8158 27.1526 39.4058 26.9551 38.9583 26.8054C38.2067 26.5784 37.4016 26.4942 36.6034 26.559C35.9406 26.5876 35.2761 26.587 34.612 26.6056C34.5254 26.6178 34.4413 26.6405 34.3626 26.6728C34.3901 26.75 34.4349 26.8223 34.4947 26.8859C35.8651 27.8773 37.4425 28.3819 39.2918 28.2308C39.5254 28.1976 39.7563 28.1525 39.9831 28.0957C39.7351 27.5523 39.2002 27.4402 38.6808 27.3027C38.2554 27.1897 37.8393 27.0601 37.5104 26.9682C37.3502 27.0034 37.2648 27.042 37.1904 27.034C36.6273 26.972 36.0536 27.0286 35.5233 27.1985C35.6384 27.2238 35.7576 27.2341 35.8766 27.2291C36.3719 27.1336 36.8852 27.1217 37.3854 27.1943C37.8856 27.2669 38.3622 27.4225 38.7862 27.6515C38.9153 27.7144 39.0466 27.7784 39.1758 27.8414L39.1523 27.9173L38.2007 27.8145L38.1899 27.873L39.4868 28.0331C38.4071 28.4509 35.5162 27.7143 34.5405 26.7477C34.7097 26.7476 34.8488 26.7493 34.9918 26.7458C35.6436 26.7284 36.2962 26.702 36.9488 26.6873C37.7302 26.6449 38.5109 26.7693 39.2149 27.0485C39.3628 27.1009 39.4956 27.1781 39.6048 27.2752C39.714 27.3724 39.7972 27.4873 39.8491 27.6126C39.9004 27.7135 39.9953 27.7951 40.1157 27.8417C40.8236 28.1184 41.537 28.3835 42.2686 28.6552C40.8103 28.7501 39.4238 29.2207 38.3068 29.9999C38.3662 30.0407 38.3988 30.0825 38.4403 30.0886C40.0373 30.3526 41.5118 30.1532 42.7972 29.274C42.9169 29.2043 43.011 29.1088 43.069 28.9981C43.1483 28.7583 43.3167 28.779 43.5368 28.8273C44.0921 28.9469 44.7066 28.9255 45.1716 29.3198C45.0138 29.3254 44.8567 29.3411 44.7018 29.3669C44.4447 29.4197 44.196 29.4973 43.9608 29.5981C43.9021 29.6335 43.8551 29.6804 43.8239 29.7344C43.7927 29.7885 43.7784 29.848 43.7823 29.9076C43.8222 29.9578 43.8764 29.9991 43.9402 30.0282C44.004 30.0572 44.0755 30.0731 44.1486 30.0744C44.4694 30.0844 44.7905 30.0547 45.1009 29.9864C45.5234 29.8705 45.9327 29.724 46.324 29.5488C46.5796 29.4374 46.5561 29.3433 46.3092 29.2253C46.2393 29.1912 46.1674 29.1561 46.0975 29.1221C46.0679 29.1102 46.0396 29.0964 46.0128 29.0808C46.2994 29.1875 46.6097 29.301 46.9167 29.4152L46.8186 29.4477L46.8066 29.5197L50.8991 29.8956L50.904 29.9758C49.2473 30.2091 47.7269 30.693 46.4475 31.5798L46.4731 31.6631C46.5671 31.6688 46.6614 31.6706 46.7556 31.6687C47.8544 31.5954 48.9348 31.3906 49.9625 31.0605C50.4271 30.9259 50.8179 30.5924 51.2047 30.316C51.4222 30.1624 51.6694 30.0705 51.9298 30.1974C52.3279 30.3915 52.7045 30.6152 53.1523 30.8594L52.8703 30.9321C52.4206 31.0621 51.967 31.1856 51.5211 31.3223C51.3609 31.3693 51.2972 31.4492 51.4798 31.5571C51.7979 31.7428 52.1144 31.9349 52.4283 32.1304C53.2917 32.6669 54.2522 32.8047 55.239 32.4479C55.4713 32.3394 55.7389 32.2932 56.0042 32.3158C56.2694 32.3385 56.5191 32.4288 56.7181 32.5742C58.3034 33.5499 60.1327 34.1656 61.9632 34.7676C62.5483 34.9608 63.1329 35.1584 63.7192 35.3499C63.8419 35.3956 63.9721 35.4264 64.1057 35.4415C64.1945 35.4494 64.2913 35.4068 64.386 35.3869C64.346 35.3155 64.328 35.21 64.2526 35.1756C63.8518 34.982 63.438 34.8071 63.0132 34.6516C62.1455 34.3837 61.4025 33.8994 60.888 33.2663C60.3945 32.6386 59.8254 32.052 59.3066 31.4356C59.2357 31.3515 59.2574 31.211 59.2469 31.095C59.2662 30.8947 59.2469 30.6933 59.1896 30.4982C58.9545 30.0572 58.5366 29.6996 58.0099 29.4888C57.904 29.4372 57.8394 29.3089 57.7643 29.2109C57.4197 28.7574 57.4258 28.3379 57.8863 27.9203C58.0679 27.7317 58.1823 27.5056 58.2167 27.2671C58.4233 26.1641 58.5961 25.0564 58.771 23.9497C58.7844 23.876 58.7233 23.7943 58.6973 23.7155C58.5991 23.7453 58.507 23.7871 58.4239 23.8395C57.8688 24.3006 57.666 24.9122 57.3997 25.4928C57.1095 26.0763 56.9733 26.7034 56.9999 27.3325C56.689 26.8343 56.3482 26.3492 55.979 25.8789C55.4678 25.2874 55.4833 24.6931 55.8231 24.0822C56.1107 23.571 56.4272 23.0714 56.7199 22.5651C56.7682 22.4538 56.8035 22.339 56.8252 22.2222C56.6846 22.2506 56.549 22.2941 56.422 22.3514C56.112 22.5069 55.8306 22.698 55.5863 22.9188C55.3241 23.2404 55.0919 23.5777 54.8917 23.9279C54.6152 23.8191 54.2807 23.6914 53.9538 23.5533C53.8859 23.5148 53.831 23.4629 53.794 23.4022C53.623 23.1796 53.4638 22.9486 53.2868 22.7302C53.1485 22.5612 53.1402 22.4226 53.3513 22.2895C54.6259 21.4687 55.2046 20.2993 55.6745 19.0862C55.7591 18.7971 55.8017 18.501 55.8013 18.2039C55.8045 18.1441 55.7231 18.0785 55.6824 18.0161C55.6099 18.0399 55.5436 18.0749 55.4872 18.1193C54.6968 19.0392 53.9013 19.9425 53.1414 20.8914C52.9217 21.1667 52.8507 21.5215 52.706 21.8593C52.0476 20.9624 51.3739 20.0471 50.6849 19.1133C51.8912 18.9083 52.5649 18.1769 53.2891 17.4985C53.5756 17.2299 53.8592 16.9574 54.1415 16.6867C54.2065 16.6181 54.2669 16.5467 54.3224 16.4728C52.585 16.7541 51.4862 17.6487 50.4753 18.683C50.4407 18.6499 50.4113 18.6134 50.3879 18.5743C50.1158 17.8587 49.8425 17.1448 49.5839 16.4263C49.5593 16.3197 49.5708 16.2093 49.6174 16.1075C49.9568 15.1376 49.9733 14.6288 49.6957 13.7429C50.1707 13.5779 50.3204 13.2095 50.4502 12.8409C50.7867 11.8657 51.1183 10.8881 51.445 9.90813C51.492 9.75983 51.5141 9.60701 51.5107 9.45394C51.5075 9.41353 51.4934 9.37422 51.4695 9.33888C51.4456 9.30354 51.4124 9.27304 51.3723 9.24958C51.3341 9.231 51.1951 9.28832 51.1462 9.33999C50.6943 9.80891 50.2467 10.2799 49.8266 10.7643C49.3438 11.2893 48.9964 11.8894 48.8057 12.5278C48.5974 12.313 48.4278 12.1477 48.2755 11.9743C48.2523 11.9218 48.2552 11.8639 48.2836 11.813C48.7097 10.9932 48.8657 10.0964 48.7361 9.21305C48.697 9.00484 48.7287 8.79159 48.8276 8.59679C49.3273 7.61538 49.1696 6.63925 48.7565 5.67549C48.7484 5.65502 48.7187 5.64057 48.6437 5.57803C48.5697 5.75911 48.5104 5.91196 48.4427 6.06068C48.3544 6.25364 48.3565 6.43643 48.0633 6.58382C47.7701 6.7312 47.6922 7.04019 47.5291 7.28876C46.9876 8.11052 46.8613 9.0001 46.8961 9.91636L47.0033 10.6578L47.098 11.3176C46.968 11.2182 46.8587 11.1019 46.7744 10.9734C46.6946 10.8661 46.6182 10.758 46.5397 10.6489L46.4277 10.7124L47.0992 11.644C46.4872 11.3456 46.2246 10.8305 45.8461 10.3722C46.117 10.4334 46.3596 10.5376 46.6123 10.6159C46.7409 10.6424 46.8731 10.6553 47.0058 10.6543L47.0037 10.6533ZM52.9412 26.8031C53.0926 26.7801 53.2542 26.7668 53.3966 26.7324C53.6774 26.6635 53.9761 26.6624 54.257 26.729C54.538 26.7957 54.7894 26.9274 54.9813 27.1084C55.1762 27.2743 55.3522 27.4545 55.5451 27.6193C55.7867 27.8315 56.0364 28.0405 56.2848 28.2513L56.232 28.2846C56.0367 28.1587 55.8566 28.0473 55.6842 27.9137C55.5952 27.8467 55.5571 27.8517 55.3591 27.8165C55.1907 27.7748 55.0312 27.7122 54.8861 27.6308C54.2363 27.3518 53.5867 27.0737 52.9374 26.7965C52.8752 26.9574 52.9655 27.0463 53.1353 27.1125C53.8475 27.403 54.558 27.6998 55.2664 27.9956C55.3766 28.0493 55.4782 28.0989 55.601 28.1587L55.5555 28.2215C54.5858 27.956 53.6536 27.6068 52.7743 27.1796C52.6277 27.0873 52.4909 26.9851 52.3653 26.874L52.9434 26.8041L52.9412 26.8031ZM48.6679 14.1246L48.6833 14.0165L48.789 14.009L49.1278 15.68L48.9768 15.6984L48.9195 15.2834C48.8391 15.2012 48.7729 15.1102 48.723 15.013C48.5397 14.4516 48.3324 13.8997 48.1922 13.338C48.1235 12.9442 48.0821 12.5473 48.0683 12.1494C48.119 12.1387 48.1697 12.1281 48.2196 12.1146L48.8764 12.9281C49.1176 12.9631 49.1457 13.1892 49.2333 13.3688C49.283 13.478 49.2817 13.6142 49.3597 13.7042C49.7351 14.1232 49.8597 14.8921 49.6269 15.3356L49.1615 13.938L49.0702 13.9572C49.0766 13.9958 49.0797 14.035 49.0895 14.0729C49.2283 14.589 49.3818 15.1005 49.4935 15.6223C49.5041 15.811 49.4853 16.0001 49.4378 16.1852C49.2769 15.5851 49.217 14.9918 49.0696 14.4125C48.9374 13.8339 48.7014 13.275 48.3693 12.754L48.2936 12.7714L48.6679 14.1246ZM54.1127 24.6622C53.8643 24.4632 53.6168 24.2671 53.3731 24.0656L53.4377 24.0121C54.0956 24.2668 54.7017 24.5693 54.9528 25.1874C55.0296 25.2909 55.1064 25.3945 55.2032 25.5455C54.5769 25.599 54.0215 25.7483 53.4928 25.434C52.9989 25.1389 52.5091 24.1307 52.6669 23.66C52.6856 23.6307 52.7126 23.6055 52.7458 23.5867C52.7789 23.5679 52.8171 23.556 52.857 23.5521C53.4581 23.5769 54.0429 23.7188 54.5631 23.966C54.9457 24.1687 55.2304 24.4744 55.369 24.8309C55.1988 24.7692 55.1133 24.7369 55.0298 24.7057L54.9881 24.7633L55.4399 25.0968L55.3411 25.1737C55.2326 25.1015 55.1362 25.018 55.0541 24.9252C54.7554 24.4819 54.2667 24.1461 53.6825 23.9828C53.5469 23.9555 53.4075 23.9431 53.2679 23.9459L53.2385 24.026C53.4678 24.2924 53.7675 24.5127 54.1152 24.6705L54.1127 24.6622ZM43.0398 21.5254L43.3356 21.9316L43.298 21.9558C42.8766 21.5686 42.4565 21.1797 42.0351 20.7925L41.9544 20.8524L43.89 22.7283C43.0248 22.795 41.8796 22.2202 41.5897 21.5172C41.3877 20.9125 41.2303 20.2982 41.1182 19.6776C41.375 19.7023 41.6142 19.7965 41.7982 19.9454C41.8299 19.9609 41.7415 20.1066 41.7095 20.1901C41.9606 20.4329 42.2183 20.6742 42.4834 20.9332C42.5193 20.9153 42.5758 20.8768 42.5852 20.8837C42.9626 21.1497 43.2558 21.487 43.4399 21.8668C43.3064 21.7546 43.1742 21.6405 43.0398 21.5254V21.5254ZM39.508 14.7999C39.5144 14.6567 39.5201 14.5698 39.5212 14.4972C39.5751 14.0651 39.5914 13.6306 39.57 13.1968C39.5168 12.7484 39.7236 12.3843 39.9295 12.0055C40.0443 11.805 40.1747 11.6108 40.3198 11.4239C40.4061 11.323 40.5013 11.2274 40.6046 11.1379C40.6945 11.2431 40.7891 11.3459 40.8744 11.4536C40.8965 11.4922 40.9122 11.5332 40.9208 11.5753C41.2372 12.5134 41.1885 13.5105 40.7815 14.4271C40.6002 14.8857 40.2389 15.2824 39.7544 15.5549C39.6787 15.596 39.5442 15.5681 39.4355 15.5718C39.4327 15.4689 39.3863 15.3472 39.4377 15.2684C39.682 14.8801 40.0233 14.5201 40.1996 14.1151C40.5589 13.3728 40.6643 12.5646 40.5042 11.7782C40.4835 11.734 40.4544 11.6927 40.4181 11.656C40.5117 12.7516 40.1892 13.8453 39.4948 14.7864L39.508 14.7999ZM35.9908 11.0579L35.9203 11.1037L37.6983 13.0704C36.4316 12.7857 35.0435 10.6173 34.9548 9.34438C35.3382 9.57848 35.6937 9.79187 36.0419 10.0112C36.9295 10.5385 37.5865 11.2865 37.9164 12.1453C37.938 12.1847 37.9498 12.2273 37.9509 12.2706C37.952 12.3138 37.9425 12.3569 37.9229 12.3971C37.9034 12.4374 37.8742 12.474 37.837 12.5048C37.7999 12.5357 37.7556 12.56 37.7068 12.5765C37.2419 11.696 36.6051 10.8841 35.8215 10.1728C36.3349 10.9589 37.0827 11.635 37.4212 12.5081C36.9445 12.0232 36.4763 11.5306 35.9908 11.0579ZM49.6768 13.6227C49.3902 13.3697 49.4943 13.1986 49.5932 13.0108C50.0028 12.2286 50.4006 11.443 50.7941 10.6553C50.8342 10.5417 50.8611 10.4252 50.8745 10.3074L50.7975 10.2911L49.3601 13.1544C49.1733 12.91 48.9256 12.7892 49.0096 12.5351C49.3932 11.3461 50.355 10.4507 51.2946 9.48314C51.3032 9.53235 51.3065 9.58212 51.3043 9.63184C51.0315 10.8379 50.6276 12.0218 50.0974 13.1693C49.9836 13.3358 49.842 13.4884 49.6768 13.6227ZM51.7553 31.4577C52.7627 31.0493 53.9202 30.9713 54.992 31.2394C55.1661 31.276 55.3291 31.3415 55.4711 31.4318C55.6131 31.5221 55.731 31.6354 55.8177 31.7646C54.7692 31.594 53.7098 31.4715 52.6443 31.3978L52.6255 31.4948C53.5873 31.6309 54.5491 31.767 55.5405 31.9057L53.6358 32.0581L53.644 32.1377L54.3322 32.1451L54.2437 32.2672C54.5187 32.2832 54.7661 32.2858 55.0136 32.3003C53.678 32.7113 52.703 32.1864 51.7642 31.4573L51.7553 31.4577ZM36.6751 9.13028C35.603 8.37163 34.3359 6.06397 34.4601 5.14972C34.4987 5.15646 34.536 5.1675 34.571 5.18254C35.1243 5.53016 35.6577 5.88934 35.8766 6.47281C35.9682 6.7417 36.1385 7.00881 36.2462 7.28318C36.4173 7.72301 36.5648 8.16782 36.7182 8.60843L36.6184 8.63533L35.9072 7.39882C35.6744 6.99265 35.5371 6.5457 35.1547 6.20351C35.3632 6.70641 35.5844 7.19187 35.8487 7.67712C36.113 8.16237 36.3926 8.65033 36.6708 9.12821L36.6751 9.13028ZM53.0058 21.9795C52.9427 21.6622 53.0247 21.3365 53.2362 21.0651C53.8206 20.3421 54.4326 19.6327 55.0341 18.918L55.5756 18.278C55.8206 19.1574 54.2727 21.6553 53.1449 22.1275C53.5366 21.4452 53.9499 20.7686 54.3979 20.1114C54.6205 19.8045 54.8981 19.5244 55.1376 19.2257C55.1993 19.1316 55.2491 19.0324 55.2862 18.93C54.3537 19.868 53.5228 20.8437 53.0122 21.9826L53.0058 21.9795ZM57.2553 27.4664C57.1752 26.1976 57.7062 25.0899 58.509 24.0344C58.5281 24.0467 58.5434 24.0626 58.5537 24.0807C58.5639 24.0988 58.5689 24.1187 58.568 24.1387C58.3908 25.1735 58.2276 26.2127 58.0352 27.2447C57.942 27.6285 57.7128 27.9816 57.3766 28.2596L57.6607 25.8324L57.5325 25.8195L57.2468 27.4623L57.2553 27.4664ZM52.223 22.0392C51.9448 21.9249 51.7076 21.8093 51.4532 21.7253C50.1108 21.2763 48.765 20.8397 47.426 20.3899C47.2574 20.3173 47.0982 20.231 46.9507 20.1323C48.1501 19.6997 51.9331 21.289 52.223 22.0392ZM46.6643 24.8903L46.5526 24.8783C46.566 24.6346 46.5607 24.389 46.5948 24.1483C46.7034 23.3593 46.6838 22.5624 46.5365 21.7785C46.5193 21.6875 46.4831 21.599 46.4512 21.5009L46.3835 21.5151L46.4963 22.8257L46.3898 22.8304C46.3299 22.2135 46.2682 21.5911 46.2181 20.9765C46.2024 20.8627 46.2207 20.7474 46.2713 20.6405C46.3218 20.5336 46.4032 20.4383 46.5084 20.3628L46.6302 20.8588C46.8049 21.5506 47.0249 22.2313 47.1455 22.9345C47.2462 23.6112 47.0774 24.2973 46.6643 24.8903V24.8903ZM41.1537 23.9127C41.8997 23.8681 45.2685 24.7243 45.6657 25.0974L42.2991 24.4003C43.1797 24.8933 44.2635 24.9165 45.2743 25.1945C44.0494 25.3975 41.5378 24.6122 41.1474 23.9215L41.1537 23.9127ZM42.213 19.7251C42.2678 19.124 42.3732 18.4767 42.369 17.8303C42.3786 17.2954 42.2996 16.7622 42.1341 16.2454C42.0361 15.9616 42.1346 15.7547 42.1471 15.4846C43.0149 16.264 43.286 18.8108 42.2215 19.7292L42.213 19.7251ZM38.1097 11.116L37.9997 11.086C38.0072 11.0755 37.9894 11.0526 37.994 11.0384C38.4745 9.60774 39.0962 8.21127 39.8529 6.86285C39.924 6.76796 40.0073 6.67958 40.1014 6.59926C40.139 6.66928 40.1533 6.74631 40.1429 6.82252C40.0969 7.54594 39.7593 8.19329 39.3717 8.83045C39.0882 9.29647 38.8293 9.7721 38.5661 10.2457C38.4061 10.5335 38.26 10.8258 38.1097 11.116V11.116ZM47.9764 20.7928C49.125 21.1852 50.1129 21.7989 51.2837 22.1171C50.9386 21.9489 50.5732 21.8085 50.2225 21.6518C49.8719 21.495 49.547 21.3225 49.2104 21.1583L49.242 21.1147C50.2712 21.4701 51.3033 21.8293 52.3765 22.1991C51.8712 22.4531 51.5394 22.5156 51.0393 22.3001C50.0903 21.8894 49.1763 21.4226 48.2527 20.9771C48.1567 20.9214 48.0666 20.8593 47.9832 20.7914L47.9764 20.7928ZM48.2879 31.0419L48.3465 31.1508L50.9922 30.2454C50.7074 30.5995 50.2837 30.8629 49.7919 30.9915C49.0348 31.17 48.2678 31.3225 47.503 31.476C47.2826 31.508 47.0603 31.5296 46.837 31.5407C47.9055 30.8815 49.6746 30.2522 50.4047 30.273L48.2879 31.0419V31.0419ZM49.887 18.8895C49.2959 18.6651 48.7108 18.4365 48.1193 18.2166C47.5279 17.9967 46.9377 17.7869 46.3403 17.5712C47.3617 17.0165 49.3823 17.9967 50.2047 18.9217C49.4551 18.3745 48.5259 18.0749 47.6225 17.7714C48.3784 18.1399 49.2343 18.3707 49.887 18.8895V18.8895ZM42.8043 28.8691C42.7159 28.8921 42.6267 28.9124 42.5413 28.9392C41.6707 29.2228 40.7882 29.5149 39.9171 29.8149C39.8049 29.874 39.706 29.9488 39.625 30.0359L39.659 30.1115C39.3332 30.0825 39.0087 30.0518 38.6195 30.0154C39.8098 29.2429 41.2909 28.8371 42.8043 28.8691V28.8691ZM44.4574 27.8977L44.349 27.9959C44.8394 28.4144 45.3286 28.8346 45.8212 29.2541C45.6079 29.2398 45.231 29.2024 45.2282 29.1232C45.198 28.8606 44.9735 28.9329 44.8262 28.8871C44.7778 28.8729 44.7332 28.8512 44.6949 28.8231C44.286 28.5067 43.9627 28.1232 43.7459 27.6972C44.8127 27.724 46.1859 28.4547 46.2895 29.1024C45.6514 28.678 45.0633 28.2875 44.4718 27.8977L44.4574 27.8977ZM57.0624 32.5461C57.2228 32.5936 57.3032 32.6092 57.3896 32.6442C58.4388 33.0471 59.485 33.458 60.5274 33.8505C60.6849 33.8939 60.8474 33.9241 61.0124 33.9406L60.901 33.5488C61.5514 34.5055 62.7798 34.7007 63.7966 35.1562C62.7128 34.9749 58.2205 33.2334 57.0518 32.5409L57.0624 32.5461ZM51.0312 28.7492C50.4318 28.2516 49.7124 26.9119 49.785 26.5154C50.6454 27.2063 51.6092 28.6556 51.6159 29.3103L50.9036 28.3164L50.8251 28.3536L51.0312 28.7492ZM49.0346 16.3143C47.9594 15.8209 46.6797 14.2222 46.822 13.6307C47.7633 14.1864 48.1494 14.6578 48.2061 15.3463C47.971 15.0264 47.7524 14.731 47.5347 14.4384L47.429 14.4931C47.6599 14.7992 47.8709 15.1169 48.1297 15.4082C48.3884 15.6996 48.7293 16.0121 49.0308 16.3196L49.0346 16.3143ZM41.9694 19.571C41.4567 18.5232 41.8584 17.4752 41.9849 16.4275C42.26 17.4627 42.2548 18.5358 41.9694 19.571V19.571ZM39.5878 10.9987L39.5234 10.9531L38.3448 12.1157C38.2727 11.5117 39.5276 10.4453 40.2629 10.5064C39.5295 11.5651 38.683 12.3727 38.2077 12.4313C38.6888 11.9577 39.2834 11.5607 39.5878 10.9987V10.9987ZM48.6635 8.60176C48.5649 8.08164 48.5164 7.61898 48.3909 7.17545C48.2505 6.68925 48.5177 6.28134 48.6617 5.84172C48.9761 6.73611 49.1479 7.62946 48.6656 8.60279L48.6635 8.60176ZM57.8229 29.636C58.1158 29.7316 58.38 29.8781 58.5973 30.0655C58.8145 30.2529 58.9798 30.4767 59.0819 30.7218C59.1201 30.8154 59.1213 30.9166 59.0853 31.0109C59.0493 31.1053 58.9779 31.188 58.8814 31.2472C58.6542 30.7187 58.4972 30.1961 58.0234 29.8022L57.9198 29.8461C58.1901 30.339 58.457 30.8326 58.7544 31.3788C57.9999 31.1031 57.6029 30.3148 57.8292 29.6273L57.8229 29.636ZM42.1421 26.7549L42.028 26.7818L42.5926 28.1097L42.4823 28.1433C41.8047 27.4967 41.8713 26.5591 41.25 25.8904C42.2452 26.3755 43.0149 27.4919 42.8169 28.002C42.6121 27.6165 42.3826 27.186 42.1518 26.7572L42.1421 26.7549ZM56.5716 22.4574C56.3482 22.8088 56.1227 23.1237 55.9379 23.4537C55.753 23.7837 55.6003 24.1365 55.4299 24.49C54.862 23.9017 55.329 23.0483 56.5754 22.4521L56.5716 22.4574ZM37.9194 10.6314C37.836 9.41064 38.4347 8.44682 39.2683 7.56214L37.9194 10.6314ZM41.8674 20.2057L41.9344 20.1133C42.0516 20.1255 42.2097 20.1011 42.2856 20.1546C42.7003 20.4496 43.1012 20.7544 43.4883 21.069C43.9032 21.4059 44.2092 21.7863 44.1364 22.3055C44.1336 22.4302 44.1471 22.5547 44.1767 22.6768L44.085 22.7006C43.8411 21.5785 43.0059 20.8055 41.8792 20.2091L41.8674 20.2057ZM57.128 29.6891L57.2066 29.6401L56.3793 28.6703L56.4786 28.6125C56.63 28.7595 56.7826 28.9047 56.9331 29.0489C57.0836 29.193 57.2202 29.3328 57.3652 29.4766L57.4501 29.4189L56.8313 28.7703L56.9331 28.709C57.1478 28.9623 57.4686 29.1919 57.5505 29.4702C57.6558 29.8308 57.5718 30.2312 57.5668 30.6016C57.1277 30.2507 56.6276 29.5254 56.5882 29.1332C56.7701 29.3329 56.933 29.5114 57.0971 29.6882L57.128 29.6891ZM34.7655 10.2576L34.7895 10.2008L33.6662 9.77359L33.6283 9.8259C33.9965 10.0479 34.3633 10.2707 34.7284 10.4944C33.9932 10.4452 33.5649 10.0121 33.0736 9.61452C33.5102 9.61189 33.9454 9.65283 34.3696 9.73645C34.9439 9.86537 35.0695 10.0517 35.0569 10.5908C34.8578 10.4701 34.6702 10.3574 34.4249 10.2095L34.7443 10.2472L34.7655 10.2576ZM39.9262 30.0671L39.8914 30.0006L42.704 29.035C41.9834 29.7836 40.9325 29.8968 39.9262 30.0671V30.0671ZM47.8473 14.2839C47.6241 14.0691 47.4268 13.8369 47.258 13.5907C47.09 13.2528 46.7925 12.9694 46.4105 12.7834L45.9721 12.5697C46.9428 12.7172 48.0541 13.4218 47.8536 14.287L47.8473 14.2839ZM50.647 18.9956L50.6082 18.8989C51.036 18.6212 51.4702 18.3466 51.8984 18.0644C52.3266 17.7822 52.7417 17.4984 53.1644 17.2159C53.1958 17.2477 53.2272 17.2795 53.2598 17.3096L51.4996 18.6182L51.7723 18.5387L51.811 18.6237L50.6774 19.001L50.647 18.9956ZM53.6325 16.7879L50.9655 18.5089L50.9062 18.4446C51.7425 17.7854 52.4995 17.038 53.6325 16.7879V16.7879ZM45.6276 29.6436L45.6438 29.7081C45.1883 29.8948 44.6836 29.9847 44.1758 29.9697C44.0933 29.9562 44.0138 29.9326 43.94 29.8996C43.9893 29.8315 44.0327 29.7441 44.1088 29.7104C44.5485 29.5313 45.0496 29.4829 45.5267 29.5732L44.908 29.7979L44.9305 29.8419L45.6424 29.6508L45.6276 29.6436ZM44.8817 20.5941C45.0248 21.1359 44.7987 21.5662 44.5067 22.0045C44.274 21.6692 44.467 20.8735 44.8817 20.5941ZM36.9344 8.62649C36.6378 7.884 36.3434 7.14254 36.0511 6.40211C36.6712 7.06078 36.7802 7.85504 36.9344 8.62649ZM50.8823 29.7765L47.4502 29.47C48.6008 29.4644 49.7674 29.4761 50.8823 29.7765ZM40.9235 17.2389L40.485 15.9347C40.9845 16.2656 41.2061 16.9164 40.9235 17.2389ZM37.2385 8.796C37.1029 8.3546 37.5044 7.72189 38.0195 7.50566L37.2385 8.796ZM39.4726 13.173L39.3268 15.0893C39.157 14.4525 39.2075 13.7888 39.4726 13.173V13.173ZM48.0408 13.5073L48.4776 14.8178C47.9534 14.4301 48.101 13.9262 48.0408 13.5073ZM51.2689 20.2524L51.3302 20.2232L52.4265 21.7349L52.326 21.7826L51.2689 20.2524ZM39.6355 8.60501L39.7075 8.64011L38.8356 10.1033L38.7763 10.0744L39.6355 8.60501ZM44.9536 23.799L45.0224 23.7594C45.4108 24.121 45.7958 24.4834 46.182 24.844L46.0971 24.9017L44.9536 23.799V23.799ZM48.7851 15.6427L48.6524 15.6913L48.2563 14.953L48.3924 14.9037L48.7851 15.6427ZM36.6384 14.8007L36.6272 14.8991C36.2562 14.8574 35.8859 14.8186 35.517 14.778L35.5324 14.6816C35.9013 14.7223 36.2703 14.7629 36.6384 14.8007V14.8007ZM59.568 32.1342C59.3476 31.9324 59.1292 31.7315 58.9075 31.5314L59.0092 31.4582C59.3036 31.6017 59.3678 31.9163 59.568 32.1342" fill="#525060"/>
<path d="M65.476 25C65.404 25 65.368 24.928 65.368 24.784C65.368 24.64 65.404 24.568 65.476 24.568C66.412 24.568 67.096 24.508 67.528 24.388C67.984 24.268 68.296 24.04 68.464 23.704C68.632 23.344 68.716 22.804 68.716 22.084V15.748C68.716 14.98 68.632 14.44 68.464 14.128C68.32 13.792 68.044 13.624 67.636 13.624C67.252 13.624 66.484 13.852 65.332 14.308H65.296C65.224 14.308 65.164 14.248 65.116 14.128C65.068 14.008 65.092 13.924 65.188 13.876L71.74 10.78C71.764 10.756 71.8 10.744 71.848 10.744C71.92 10.744 71.98 10.78 72.028 10.852C72.076 10.9 72.1 10.96 72.1 11.032V22.084C72.1 22.828 72.172 23.368 72.316 23.704C72.46 24.04 72.748 24.268 73.18 24.388C73.612 24.508 74.296 24.568 75.232 24.568C75.304 24.568 75.34 24.64 75.34 24.784C75.34 24.928 75.304 25 75.232 25C74.368 25 73.696 24.988 73.216 24.964L70.372 24.928L67.528 24.964C67.024 24.988 66.34 25 65.476 25Z" fill="#666358"/>
<line y1="40.5" x2="140" y2="40.5" stroke="black"/>
</svg>
