<svg width="34" height="34" viewBox="0 0 34 34" fill="none" xmlns="http://www.w3.org/2000/svg">
<path d="M22.4479 16.5031C22.4479 17.8162 21.9263 19.0755 20.9978 20.0039C20.0694 20.9324 18.8101 21.454 17.497 21.454C16.184 21.454 14.9247 20.9324 13.9963 20.0039C13.0678 19.0755 12.5462 17.8162 12.5462 16.5031C12.5462 16.2209 12.5759 15.9453 12.627 15.678H10.8959V22.2742C10.8959 22.733 11.2672 23.1043 11.726 23.1043H23.2697C23.4896 23.1038 23.7003 23.0162 23.8556 22.8606C24.011 22.7049 24.0982 22.4941 24.0982 22.2742V15.678H22.367C22.4182 15.9453 22.4479 16.2209 22.4479 16.5031ZM17.497 19.8037C17.9306 19.8036 18.3599 19.7181 18.7604 19.5521C19.1609 19.3861 19.5247 19.1428 19.8312 18.8362C20.1377 18.5295 20.3808 18.1655 20.5466 17.7649C20.7124 17.3644 20.7977 16.935 20.7976 16.5015C20.7975 16.0679 20.712 15.6387 20.546 15.2382C20.38 14.8377 20.1367 14.4738 19.8301 14.1673C19.5234 13.8608 19.1594 13.6177 18.7588 13.4519C18.3583 13.2861 17.9289 13.2008 17.4954 13.2009C16.6198 13.2011 15.7802 13.5492 15.1612 14.1685C14.5422 14.7877 14.1946 15.6276 14.1948 16.5031C14.195 17.3787 14.5431 18.2184 15.1624 18.8373C15.7816 19.4563 16.6215 19.8039 17.497 19.8037ZM21.4577 13.0375H23.4364C23.5679 13.0375 23.694 12.9854 23.7871 12.8926C23.8802 12.7998 23.9327 12.6739 23.9331 12.5425V10.5638C23.9331 10.432 23.8808 10.3057 23.7877 10.2125C23.6945 10.1194 23.5682 10.067 23.4364 10.067H21.4577C21.326 10.067 21.1996 10.1194 21.1065 10.2125C21.0133 10.3057 20.961 10.432 20.961 10.5638V12.5425C20.9626 12.8148 21.1854 13.0375 21.4577 13.0375ZM17.497 0.6604C13.2953 0.6604 9.26562 2.32954 6.29453 5.30063C3.32344 8.27172 1.6543 12.3014 1.6543 16.5031C1.6543 20.7049 3.32344 24.7346 6.29453 27.7056C9.26562 30.6767 13.2953 32.3459 17.497 32.3459C19.5775 32.3459 21.6377 31.9361 23.5598 31.1399C25.4819 30.3438 27.2284 29.1768 28.6995 27.7056C30.1707 26.2345 31.3376 24.488 32.1338 22.5659C32.93 20.6438 33.3398 18.5836 33.3398 16.5031C33.3398 14.4226 32.93 12.3625 32.1338 10.4404C31.3376 8.51826 30.1707 6.77177 28.6995 5.30063C27.2284 3.8295 25.4819 2.66253 23.5598 1.86636C21.6377 1.07019 19.5775 0.6604 17.497 0.6604ZM25.7485 22.9211C25.7485 23.9294 24.9233 24.7546 23.915 24.7546H11.0791C10.0708 24.7546 9.24561 23.9294 9.24561 22.9211V10.0852C9.24561 9.07686 10.0708 8.25171 11.0791 8.25171H23.915C24.9233 8.25171 25.7485 9.07686 25.7485 10.0852V22.9211Z" fill="white"/>
</svg>
