<svg width="32" height="33" viewBox="0 0 32 33" fill="none" xmlns="http://www.w3.org/2000/svg">
<path d="M16.001 0.660156C7.48147 0.660156 0.575195 7.75309 0.575195 16.5029C0.575195 25.2528 7.48147 32.3457 16.001 32.3457C24.5206 32.3457 31.4269 25.2528 31.4269 16.5029C31.4269 7.75309 24.5206 0.660156 16.001 0.660156ZM22.2758 13.638C22.2822 13.7734 22.2838 13.9087 22.2838 14.0407C22.2838 18.1664 19.2292 22.9209 13.6406 22.9209C11.9892 22.9237 10.3722 22.4366 8.98388 21.5182C9.22009 21.5479 9.46269 21.5594 9.70859 21.5594C11.1323 21.5594 12.4418 21.0627 13.4815 20.2243C12.8479 20.2116 12.234 19.9961 11.7254 19.608C11.2167 19.2199 10.8386 18.6784 10.6438 18.0592C11.0988 18.148 11.5675 18.1294 12.0144 18.0047C11.3268 17.8619 10.7084 17.4792 10.2641 16.9216C9.81979 16.3639 9.57699 15.6656 9.57679 14.9451V14.9071C9.98659 15.1398 10.4558 15.2817 10.9539 15.2982C10.3092 14.8575 9.85289 14.1804 9.67809 13.4056C9.50339 12.6307 9.62349 11.8165 10.0139 11.1296C10.7771 12.0934 11.7288 12.8818 12.8075 13.4438C13.8862 14.0059 15.0678 14.329 16.2758 14.3922C16.1222 13.7227 16.1883 13.0199 16.4638 12.3929C16.7393 11.766 17.2088 11.2501 17.7992 10.9254C18.3897 10.6008 19.068 10.4855 19.7288 10.5977C20.3895 10.7098 20.9957 11.043 21.4531 11.5455C22.1331 11.4073 22.7852 11.1512 23.3813 10.788C23.1547 11.511 22.6802 12.125 22.046 12.5159C22.6484 12.4413 23.2365 12.275 23.7911 12.0224C23.3837 12.6493 22.8706 13.1965 22.2758 13.638Z" fill="white"/>
</svg>
