<svg width="104" height="60" viewBox="0 0 104 60" fill="none" xmlns="http://www.w3.org/2000/svg">
<path d="M0.627509 5.9466C0.627509 6.89853 0.934861 8.00414 1.90814 8.00414C2.88142 8.00414 3.4449 7.32968 4.42672 7.32968C4.7372 7.32495 5.04542 7.38311 5.33283 7.50067C5.62023 7.61822 5.88086 7.79273 6.09903 8.01369C6.3172 8.23465 6.48839 8.49749 6.60228 8.78637C6.71617 9.07524 6.77041 9.38418 6.76173 9.69457C6.75188 10.0061 6.6802 10.3126 6.55085 10.5962C6.42151 10.8798 6.23709 11.1349 6.00831 11.3466C5.77953 11.5583 5.51095 11.7224 5.21818 11.8294C4.92541 11.9364 4.6143 11.9841 4.30292 11.9698C1.93802 11.9698 0 9.04999 0 7.08209C0 3.51767 2.98814 0.935059 6.40315 0.935059H16.486V1.11862C15.2054 1.11862 13.7497 1.7632 13.7497 3.21031V19.0688C13.7497 20.5159 14.8254 21.1007 16.1146 21.1007H17.5276C20.2638 21.1007 24.046 17.6857 25.1516 13.6901H25.3992L24.2295 21.344H6.37754V21.1306C7.65817 21.1306 9.11382 20.5458 9.11382 19.1029V3.21031C9.11382 1.7632 7.7905 1.24241 6.37754 1.24241C3.61138 1.24241 0.627509 3.2402 0.627509 5.9466Z" fill="white"/>
<path d="M26.2017 21.3437V21.1004C27.4823 21.1004 28.0159 20.5156 28.0159 19.0685V12.6141C28.0159 11.6621 26.4151 10.6803 25.9541 10.4029V10.1852C27.9006 9.86854 29.8071 9.34183 31.6401 8.61425H31.8237V19.0642C31.8237 20.5113 32.3487 21.0961 33.6379 21.0961V21.3394L26.2017 21.3437ZM30.0735 0.853633C30.5363 0.852788 30.989 0.989262 31.3743 1.24579C31.7595 1.50232 32.06 1.86737 32.2377 2.29475C32.4154 2.72212 32.4624 3.1926 32.3726 3.64666C32.2828 4.10072 32.0604 4.51794 31.7334 4.84553C31.4064 5.17311 30.9896 5.39633 30.5357 5.48694C30.0818 5.57754 29.6112 5.53147 29.1835 5.35454C28.7558 5.17761 28.3902 4.87778 28.133 4.493C27.8758 4.10821 27.7385 3.65576 27.7385 3.19292C27.7362 2.88484 27.7949 2.57937 27.9113 2.2941C28.0276 2.00883 28.1992 1.74939 28.4163 1.53076C28.6333 1.31212 28.8915 1.1386 29.1759 1.02019C29.4603 0.901774 29.7654 0.840812 30.0735 0.84082V0.853633Z" fill="white"/>
<path d="M45.9959 12.3708C45.9959 15.0132 43.1657 16.4261 40.5234 16.4261C40.2669 16.4311 40.0103 16.4211 39.755 16.3962C38.739 16.52 37.5096 16.7634 37.5096 17.2244C37.5096 17.5317 38.2481 17.7494 38.9866 17.7494H43.2895C45.3812 17.7494 47.0717 18.7611 47.0717 20.6052C47.0717 23.5934 45.0098 24.2636 40.3398 24.2636C38.0005 24.2636 34.6538 24.1398 34.6538 22.3597C34.6538 21.6511 35.4521 21.1602 36.0668 20.9126C35.7405 20.7522 35.4663 20.5027 35.276 20.193C35.0856 19.8832 34.9868 19.5259 34.991 19.1624C34.991 17.5019 37.5523 16.52 38.739 16.2127C36.7412 15.7175 35.0508 14.3985 35.0508 12.3708C35.0508 9.75831 37.8468 8.34107 40.4636 8.31119C40.5234 6.46708 42.09 4.25586 44.0878 4.25586C45.0397 4.25586 45.6886 4.96021 45.6886 6.03594C45.6886 7.11167 45.1336 7.74345 44.2415 7.74345C43.2596 7.74345 42.7687 7.03483 41.7827 7.03483C41.5319 7.04302 41.2923 7.14036 41.1068 7.30937C40.9214 7.47837 40.8023 7.70796 40.771 7.95689V8.29412C43.3493 8.4051 45.9959 9.81807 45.9959 12.3708ZM35.9131 22.2743C35.9131 24.0587 38.342 24.0587 40.1221 24.0587C43.2596 24.0587 44.5189 23.8751 44.5189 22.5817C44.5189 21.5999 42.8584 21.57 39.9385 21.57C38.8603 21.6039 37.783 21.4787 36.7412 21.1986C36.5064 21.266 36.2994 21.4068 36.1504 21.6004C36.0013 21.7939 35.9182 22.0301 35.9131 22.2743ZM42.0601 12.3793C42.0601 10.134 41.8125 8.62708 40.5234 8.62708C39.2342 8.62708 38.9866 10.134 38.9866 12.3793C38.9866 14.6247 39.2299 16.0675 40.5234 16.0675C41.8168 16.0675 42.0601 14.6119 42.0601 12.3708V12.3793Z" fill="white"/>
<path d="M64.1596 28.1694C64.4206 28.185 64.6821 28.1486 64.9289 28.0623C65.1758 27.9761 65.4031 27.8417 65.5976 27.6671C65.7922 27.4924 65.9501 27.2808 66.0623 27.0446C66.1745 26.8084 66.2387 26.5523 66.2513 26.2912C66.2513 25.4929 65.6024 25.2154 65.6024 24.4172C65.597 24.1628 65.6437 23.9099 65.7396 23.6742C65.8355 23.4385 65.9786 23.2249 66.1601 23.0466C66.3417 22.8683 66.5578 22.7289 66.7952 22.6372C67.0325 22.5455 67.2862 22.5033 67.5404 22.5133C68.6759 22.5133 69.6748 23.2518 69.6748 24.3873C69.6748 27.0937 67.0922 28.6305 64.3858 28.6305C59.7756 28.6305 57.5344 24.2934 57.5046 21.0662L57.4107 12.5543C57.4107 11.0773 56.6722 10.0656 55.5025 10.0656C54.4908 10.0656 54.0895 10.5565 53.3681 11.2011V19.0684C53.3681 20.5155 53.7096 21.1003 54.9988 21.1003V21.3437H47.9297V21.1003C49.2103 21.1003 49.5604 20.5155 49.5604 19.0684V4.62289C49.5604 3.67096 48.1432 2.83855 47.6821 2.56535V2.34764C50.2434 2.04029 53.1846 0.640137 53.1846 0.640137H53.3895V10.8126C54.3457 10.0784 55.6348 8.63127 58.0339 8.63127C59.6304 8.63127 61.244 9.86067 61.2611 11.581V22.8932C61.2696 26.2613 61.5001 28.1694 64.1596 28.1694Z" fill="white"/>
<path d="M71.105 20.6052C71.4438 20.6053 71.7773 20.5211 72.0754 20.3602C72.3735 20.1992 72.6268 19.9665 72.8125 19.6831H72.9662C72.6026 20.3212 72.0737 20.8495 71.4351 21.2123C70.7966 21.5752 70.0721 21.7592 69.3378 21.745C67.1564 21.745 65.2824 20.5454 65.2824 17.8732V10.2492H64.1128V10.0656L68.9237 5.19922H69.1073V9.07099H72.5991L72.1722 10.2406H69.1286V18.0055C69.1073 19.1624 69.8458 20.6052 71.105 20.6052Z" fill="white"/>
<path d="M78.1487 9.04126C77.3504 9.04126 76.8296 9.80964 76.8296 10.6079C76.8296 11.8885 78.9171 12.516 80.7953 13.468C82.3321 14.2662 83.745 15.3121 83.745 17.216C83.7512 17.8059 83.6407 18.3913 83.4197 18.9384C83.1987 19.4855 82.8717 19.9835 82.4575 20.4037C82.0432 20.8238 81.55 21.1579 81.0061 21.3867C80.4622 21.6154 79.8785 21.7344 79.2885 21.7366C77.4742 21.7366 75.6899 21.2457 74.8319 20.5371V16.0591H75.0453C75.6301 17.6258 77.3504 21.4975 79.5659 21.4975C79.9773 21.4852 80.367 21.3102 80.6496 21.0109C80.9321 20.7116 81.0843 20.3124 81.0728 19.901C81.0728 17.9032 79.2244 17.1946 77.5041 16.3323C75.9673 15.5639 74.4946 14.7059 74.4946 12.6783C74.4946 10.339 76.629 8.61865 78.9512 8.61865C80.1197 8.6366 81.2676 8.92905 82.3022 9.47241L82.7632 13.4039L82.5754 13.4381C81.8625 11.9398 79.9843 9.04126 78.1487 9.04126Z" fill="white"/>
<path d="M6.39453 44.6812V44.472C7.67516 44.472 9.12654 43.8915 9.12654 42.4443V26.5432C9.12654 25.1003 7.6837 24.4558 6.39453 24.4558V24.2722H13.8008C13.8008 24.2722 16.2597 24.1143 17.8263 24.1143C22.5604 24.1143 27.4481 28.3574 27.4481 34.5044C27.4481 40.6515 23.3287 44.6812 17.2756 44.6812H6.39453ZM15.8584 24.3619C15.1414 24.362 14.4263 24.435 13.724 24.5796V42.4657C13.7539 43.9128 14.3387 44.4037 15.137 44.4336H16.456C19.6533 44.4336 22.3597 42.4998 22.3597 34.4447C22.3768 26.5432 18.7483 24.3619 15.8584 24.3619V24.3619Z" fill="white"/>
<path d="M37.988 31.768C38.5398 31.7837 39.063 32.0168 39.4436 32.4166C39.8243 32.8165 40.0314 33.3505 40.0199 33.9024C40.0199 35.0123 39.5247 36.2076 38.3893 36.2076C36.8525 36.2076 36.6817 34.7049 35.828 34.7049C35.2474 34.7049 34.7224 35.6569 34.7224 36.485V42.4186C34.7224 43.8615 35.0596 44.4463 36.3531 44.4463V44.6939H29.2925V44.4463C30.5731 44.4463 30.9189 43.8615 30.9189 42.4186V35.7166C30.9189 34.7647 29.5059 33.9366 29.0449 33.6591V33.4414C31.6062 33.134 34.5474 31.7339 34.5474 31.7339H34.7309V34.8714C35.1621 33.9835 36.2378 31.768 37.988 31.768Z" fill="white"/>
<path d="M45.1209 37.4243C45.1508 40.0368 46.6875 42.2822 49.8165 42.2822C51.0459 42.2822 52.3778 41.5736 52.8601 40.8394C53.0437 40.5619 53.0779 40.3783 53.2315 40.3783C53.3852 40.3783 53.4151 40.4979 53.4151 40.5918C52.9541 42.6194 50.8026 45.0783 48.0962 45.0783C44.3482 45.0783 41.3345 42.3761 41.3345 38.594C41.3345 34.8119 44.6855 31.9561 47.8187 31.9561C50.8325 31.9561 53.2913 34.6582 53.2913 37.4243H45.1209ZM49.8848 37.1512C49.8848 35.2131 49.6372 32.1695 47.823 32.1695C45.4282 32.1695 45.1209 34.9058 45.1209 37.1512H49.8848Z" fill="white"/>
<path d="M67.7411 43.4515C67.8008 43.4515 67.835 43.4814 67.835 43.5112C67.835 43.6051 66.9428 45.0181 64.8468 45.0181C64.2818 45.0172 63.7345 44.8206 63.2979 44.4619C62.8614 44.1032 62.5625 43.6044 62.4521 43.0502C61.1287 44.1558 60.0231 45.0779 58.1449 45.0779C56.5484 45.0779 55.1567 43.8485 55.1567 42.3117C55.1567 39.823 60.1683 38.4698 62.4136 37.488V33.4924C62.3906 33.1731 62.2439 32.8754 62.0048 32.6625C61.7656 32.4497 61.4529 32.3385 61.133 32.3527C60.5823 32.3527 59.195 33.2448 59.195 34.3206C59.2246 35.1474 59.1428 35.9744 58.9517 36.7794C58.6742 37.7655 58.0595 38.4869 56.86 38.4869C56.6347 38.4854 56.412 38.4384 56.2053 38.3488C55.9986 38.2592 55.8122 38.1288 55.6571 37.9653C55.502 37.8019 55.3816 37.6088 55.3029 37.3977C55.2243 37.1866 55.1891 36.9618 55.1994 36.7367C55.1994 35.6909 56.3093 34.5255 57.8759 33.5394C59.259 32.6856 60.9793 31.9429 62.61 31.9429C64.3175 31.9429 66.1744 33.0186 66.1744 34.5041V42.5892C66.1744 43.2978 66.3879 43.9424 66.7891 43.9424C67.4337 43.9424 67.6471 43.4515 67.7411 43.4515ZM59.0413 41.6074C59.0413 42.6191 59.5962 43.6649 60.6421 43.6649C61.4702 43.6649 61.9227 43.174 62.4222 42.6489V37.7655C59.7926 38.7473 59.0413 39.6395 59.0413 41.6074Z" fill="white"/>
<path d="M86.152 35.8876C86.152 34.4148 85.5373 33.4928 84.3677 33.4928C83.356 33.4928 82.801 34.0136 82.0625 34.6581C82.0625 34.7521 82.0924 34.8118 82.0924 34.9057V42.406C82.0924 43.8488 82.4339 44.4336 83.7231 44.4336V44.6812H76.654V44.4336C77.9346 44.4336 78.2847 43.8488 78.2847 42.406V35.8876C78.2847 34.4148 77.67 33.4928 76.5003 33.4928C75.4844 33.4928 74.9636 33.9837 74.2251 34.6283V42.406C74.2251 43.8488 74.5623 44.4336 75.8557 44.4336V44.6812H68.7867V44.4336C70.0673 44.4336 70.4131 43.8488 70.4131 42.406V35.8876C70.4131 34.9356 69.0001 34.1075 68.5391 33.83V33.6123C71.1003 33.3092 74.0415 31.9048 74.0415 31.9048H74.2251V34.227C75.177 33.4885 77.2687 31.9517 78.8652 31.9517C79.5736 31.9358 80.267 32.1569 80.8354 32.5799C81.4038 33.0029 81.8146 33.6037 82.0028 34.2868C82.8949 33.5781 85.0763 31.9517 86.7368 31.9517C88.5809 31.9517 89.964 33.3647 89.964 34.9015V46.2137C89.964 49.5946 90.139 51.4984 92.7899 51.4984C93.0506 51.514 93.3118 51.4777 93.5584 51.3918C93.8049 51.3058 94.032 51.1718 94.2265 50.9976C94.421 50.8233 94.579 50.6122 94.6915 50.3766C94.8039 50.1409 94.8686 49.8853 94.8816 49.6244C94.8816 48.8262 94.2371 48.5487 94.2371 47.7505C94.2311 47.4961 94.2772 47.2431 94.3726 47.0072C94.468 46.7713 94.6106 46.5574 94.7917 46.3787C94.9729 46.1999 95.1887 46.0601 95.4258 45.9679C95.663 45.8757 95.9165 45.8329 96.1708 45.8423C97.3106 45.8423 98.3052 46.5808 98.3052 47.7206C98.3052 50.4227 95.7226 51.9595 93.0205 51.9595C88.4102 51.9595 86.1349 47.6267 86.1349 44.3995L86.152 35.8876Z" fill="white"/>
<path d="M95.7695 32.3872C94.9713 32.3872 94.4505 33.1513 94.4505 33.9538C94.4505 35.2345 96.5379 35.8577 98.4119 36.8096C99.9529 37.6122 101.366 38.6538 101.366 40.5619C101.372 41.1497 101.261 41.733 101.041 42.2782C100.821 42.8234 100.496 43.3199 100.084 43.7393C99.6724 44.1588 99.1819 44.4929 98.6407 44.7227C98.0996 44.9524 97.5185 45.0732 96.9306 45.0783C95.1164 45.0783 93.3321 44.5873 92.4698 43.883V39.3923H92.6619C93.2467 40.9589 94.967 44.8349 97.1782 44.8349C97.3825 44.8294 97.5836 44.7836 97.7701 44.7C97.9566 44.6164 98.1247 44.4968 98.2647 44.348C98.4048 44.1993 98.514 44.0242 98.5862 43.8331C98.6583 43.6419 98.6919 43.4384 98.6851 43.2341C98.6851 41.2364 96.841 40.532 95.1207 39.6697C93.5839 38.9013 92.1069 38.039 92.1069 36.0114C92.1069 33.6764 94.2413 31.9561 96.5635 31.9561C97.7322 31.9727 98.8803 32.2652 99.9145 32.8098L100.376 36.7456L100.192 36.7755C99.4919 35.2729 97.6136 32.3872 95.7695 32.3872Z" fill="white"/>
<path d="M103.64 15.7263C103.64 15.3971 103.64 14.9855 103.64 14.9855H97.3018C97.3018 14.9855 97.3018 15.1501 97.3018 15.7263C99.387 15.7263 100.073 16.961 99.387 18.9913C99.2224 19.5675 99.0029 20.0613 98.8108 20.4729C97.2743 18.9639 95.5184 16.6866 93.5978 14.4368C95.4361 14.0252 97.3292 12.2967 97.4938 10.2389C97.7682 7.05623 95.3263 5.5472 92.0064 5.5472C88.4396 5.5472 86.4367 7.19342 86.4642 9.8548C86.4642 11.8851 87.5617 13.696 89.2902 15.4245C86.3819 16.2476 84.7905 18.1408 84.7905 20.3632C84.7905 23.2989 88.0007 25.0274 92.2259 25.0274C94.5581 25.0274 96.2317 24.2592 96.7805 23.9574C97.5761 24.5336 98.6462 25.0274 99.9632 25.0274C102.46 25.0274 103.31 23.3538 103.585 22.3386L103.036 21.8996C102.048 22.7502 100.841 22.2837 99.4693 21.0765C99.7437 20.5278 100.045 19.8419 100.32 19.0187C100.814 17.4548 101.555 15.7263 103.64 15.7263ZM91.8693 6.31543C93.2137 6.31543 93.8173 7.76959 93.8447 9.41581C93.8447 10.9797 93.5429 12.7082 92.9667 13.6685C91.8967 12.4064 90.7169 10.8425 90.223 9.3335C89.6469 7.60497 90.3328 6.31543 91.8693 6.31543ZM90.0035 16.275C90.909 17.4548 93.5704 20.5552 95.5184 22.8325C95.6281 22.9697 95.7927 23.1343 95.9574 23.2989C90.5797 24.5061 87.5617 18.3877 90.0035 16.275Z" fill="white"/>
<path d="M24.4141 58.7065H24.6053V56.6686H26.5656V56.5013H24.6053V54.6726H26.6851V54.4992H24.4141V58.7065ZM31.6583 58.7723C32.8536 58.7723 33.8217 57.7981 33.8217 56.6029C33.8217 55.4076 32.8536 54.4395 31.6583 54.4395C30.4631 54.4395 29.4949 55.4076 29.4949 56.6029C29.4949 57.7981 30.4631 58.7723 31.6583 58.7723ZM31.6583 58.6049C30.5706 58.6049 29.6862 57.7085 29.6862 56.6029C29.6862 55.5033 30.5706 54.6008 31.6583 54.6008C32.746 54.6008 33.6245 55.5033 33.6245 56.6029C33.6245 57.7085 32.746 58.6049 31.6583 58.6049ZM37.3665 58.7065H37.5577V54.6726H38.8367V54.4992H36.0876V54.6726H37.3665V58.7065ZM43.5712 58.7723C44.7664 58.7723 45.7346 57.7981 45.7346 56.6029C45.7346 55.4076 44.7664 54.4395 43.5712 54.4395C42.3759 54.4395 41.4078 55.4076 41.4078 56.6029C41.4078 57.7981 42.3759 58.7723 43.5712 58.7723ZM43.5712 58.6049C42.4835 58.6049 41.599 57.7085 41.599 56.6029C41.599 55.5033 42.4835 54.6008 43.5712 54.6008C44.6589 54.6008 45.5374 55.5033 45.5374 56.6029C45.5374 57.7085 44.6589 58.6049 43.5712 58.6049ZM50.9692 58.7723C52.1465 58.7723 53.1087 57.8221 53.1266 56.6388V56.579H50.9692V56.7224H52.9234C52.8816 57.7742 52.021 58.6049 50.9692 58.6049C49.8815 58.6049 48.997 57.7085 48.997 56.6029C48.997 55.5033 49.8815 54.6008 50.9692 54.6008C51.6983 54.6008 52.3377 55.0132 52.6784 55.6168L52.8457 55.5212C52.4573 54.8518 51.7401 54.4395 50.9692 54.4395C49.7799 54.4395 48.8057 55.4017 48.8057 56.6029C48.8057 57.8041 49.7799 58.7723 50.9692 58.7723ZM56.3498 58.7065H56.5411V56.824H57.8738L59.1885 58.7065H59.4276L58.0889 56.8001C58.6387 56.7164 59.0571 56.2443 59.0571 55.6646C59.0571 55.0192 58.5371 54.4992 57.8917 54.4992H56.3498V58.7065ZM56.5411 56.6567V54.6726H57.8738C58.4236 54.6726 58.8658 55.1208 58.8658 55.6646C58.8658 56.2085 58.4236 56.6567 57.8738 56.6567H56.5411ZM62.114 58.7065H62.3232L62.8132 57.5531H65.1619L65.646 58.7065H65.8611L64.0085 54.3976H63.9666L62.114 58.7065ZM62.8849 57.3858L63.9846 54.7861L65.0902 57.3858H62.8849ZM68.893 58.7065H69.0842V56.6686H71.0444V56.5013H69.0842V54.6726H71.164V54.4992H68.893V58.7065ZM74.1113 54.1347H74.3025L74.7507 53.3638H74.5535L74.1113 54.1347ZM74.2308 58.7065H74.422V54.4992H74.2308V58.7065ZM77.1877 58.7065H77.3969L77.887 57.5531H80.2356L80.7197 58.7065H80.9349L79.0822 54.3976H79.0404L77.1877 58.7065ZM77.9587 57.3858L79.0583 54.7861L80.1639 57.3858H77.9587Z" fill="white"/>
<path d="M20.1912 56.8174H6.39453" stroke="white" stroke-width="0.213438" stroke-miterlimit="10"/>
<path d="M101.366 56.8174H87.5654" stroke="white" stroke-width="0.213438" stroke-miterlimit="10"/>
</svg>
