<svg width="95" height="55" viewBox="0 0 95 55" fill="none" xmlns="http://www.w3.org/2000/svg">
<path d="M0.573206 5.43179C0.573206 6.30134 0.853959 7.31128 1.74301 7.31128C2.63207 7.31128 3.14678 6.69518 4.04364 6.69518C4.32725 6.69086 4.6088 6.74399 4.87133 6.85137C5.13386 6.95876 5.37194 7.11817 5.57123 7.32C5.77052 7.52184 5.92689 7.76193 6.03093 8.02581C6.13496 8.28969 6.18451 8.57189 6.17658 8.85542C6.16758 9.14001 6.1021 9.41997 5.98395 9.67903C5.86581 9.93809 5.69734 10.1711 5.48836 10.3645C5.27937 10.5579 5.03404 10.7078 4.76661 10.8055C4.49918 10.9032 4.21498 10.9468 3.93055 10.9338C1.77031 10.9338 0 8.26662 0 6.46902C0 3.21306 2.72955 0.853943 5.84903 0.853943H15.0593V1.02162C13.8895 1.02162 12.5598 1.61042 12.5598 2.9323V17.4184C12.5598 18.7403 13.5425 19.2745 14.7201 19.2745H16.0108C18.5102 19.2745 21.9651 16.155 22.975 12.5052H23.2012L22.1327 19.4968H5.82564V19.3018C6.99544 19.3018 8.32513 18.7676 8.32513 17.4496V2.9323C8.32513 1.61042 7.11632 1.1347 5.82564 1.1347C3.29886 1.1347 0.573206 2.9596 0.573206 5.43179Z" fill="#5B5747"/>
<path d="M23.9342 19.4968V19.2745C25.104 19.2745 25.5914 18.7403 25.5914 17.4184V11.5226C25.5914 10.6531 24.1291 9.75621 23.708 9.50275V9.30388C25.4861 9.01466 27.2276 8.53353 28.902 7.86892H29.0696V17.4145C29.0696 18.7364 29.5492 19.2706 30.7268 19.2706V19.4929L23.9342 19.4968ZM27.4709 0.779892C27.8937 0.77912 28.3072 0.903784 28.6591 1.13811C29.011 1.37244 29.2855 1.7059 29.4479 2.09629C29.6102 2.48668 29.6531 2.91645 29.571 3.33122C29.489 3.74598 29.2858 4.1271 28.9871 4.42633C28.6885 4.72557 28.3077 4.92947 27.8931 5.01224C27.4785 5.095 27.0486 5.05291 26.658 4.8913C26.2673 4.72968 25.9333 4.4558 25.6983 4.10431C25.4634 3.75282 25.3379 3.33953 25.3379 2.91674C25.3359 2.63532 25.3895 2.35629 25.4958 2.0957C25.6021 1.83512 25.7589 1.59814 25.9571 1.39842C26.1554 1.1987 26.3912 1.0402 26.651 0.932032C26.9108 0.823867 27.1895 0.768181 27.4709 0.768188V0.779892Z" fill="#5B5747"/>
<path d="M42.0156 11.3004C42.0156 13.7141 39.4303 15.0048 37.0166 15.0048C36.7824 15.0093 36.548 15.0002 36.3148 14.9775C35.3867 15.0905 34.2637 15.3128 34.2637 15.7339C34.2637 16.0147 34.9383 16.2136 35.6129 16.2136H39.5434C41.4541 16.2136 42.9983 17.1377 42.9983 18.8222C42.9983 21.5518 41.1149 22.164 36.849 22.164C34.7121 22.164 31.655 22.0509 31.655 20.4249C31.655 19.7776 32.3842 19.3291 32.9457 19.103C32.6477 18.9565 32.3972 18.7286 32.2233 18.4456C32.0494 18.1627 31.9592 17.8363 31.9631 17.5043C31.9631 15.9874 34.3027 15.0905 35.3867 14.8098C33.5618 14.3575 32.0177 13.1526 32.0177 11.3004C32.0177 8.91397 34.5717 7.61938 36.9621 7.59208C37.0166 5.90756 38.4477 3.8877 40.2726 3.8877C41.1422 3.8877 41.7349 4.53109 41.7349 5.51373C41.7349 6.49637 41.228 7.07347 40.413 7.07347C39.5161 7.07347 39.0677 6.42618 38.167 6.42618C37.9379 6.43366 37.719 6.52258 37.5496 6.67696C37.3802 6.83134 37.2714 7.04106 37.2428 7.26844V7.57649C39.598 7.67787 42.0156 8.96856 42.0156 11.3004ZM32.8053 20.3469C32.8053 21.9768 35.0241 21.9768 36.6501 21.9768C39.5161 21.9768 40.6664 21.8091 40.6664 20.6276C40.6664 19.7308 39.1496 19.7035 36.4824 19.7035C35.4975 19.7344 34.5134 19.6201 33.5618 19.3642C33.3473 19.4258 33.1582 19.5544 33.0221 19.7312C32.886 19.908 32.81 20.1238 32.8053 20.3469ZM38.4204 11.3082C38.4204 9.25711 38.1942 7.88064 37.0166 7.88064C35.839 7.88064 35.6129 9.25711 35.6129 11.3082C35.6129 13.3592 35.8351 14.6772 37.0166 14.6772C38.1981 14.6772 38.4204 13.3475 38.4204 11.3004V11.3082Z" fill="#5B5747"/>
<path d="M58.6072 25.7318C58.8456 25.746 59.0845 25.7128 59.31 25.634C59.5354 25.5553 59.743 25.4325 59.9208 25.2729C60.0985 25.1134 60.2428 24.9201 60.3453 24.7044C60.4477 24.4886 60.5064 24.2547 60.5179 24.0161C60.5179 23.2869 59.9252 23.0335 59.9252 22.3043C59.9202 22.0719 59.9628 21.841 60.0504 21.6256C60.1381 21.4103 60.2688 21.2152 60.4346 21.0523C60.6004 20.8894 60.7978 20.7622 61.0147 20.6784C61.2315 20.5946 61.4632 20.5561 61.6955 20.5652C62.7327 20.5652 63.6451 21.2398 63.6451 22.277C63.6451 24.7492 61.286 26.153 58.8138 26.153C54.6025 26.153 52.5554 22.1912 52.5281 19.2433L52.4423 11.468C52.4423 10.1188 51.7677 9.19467 50.6993 9.19467C49.7751 9.19467 49.4086 9.6431 48.7496 10.2319V17.4184C48.7496 18.7403 49.0615 19.2745 50.2392 19.2745V19.4968H43.7818V19.2745C44.9516 19.2745 45.2714 18.7403 45.2714 17.4184V4.22299C45.2714 3.35344 43.9768 2.59307 43.5557 2.34351V2.14464C45.8953 1.86389 48.5819 0.5849 48.5819 0.5849H48.7691V9.87706C49.6426 9.20637 50.8202 7.88449 53.0116 7.88449C54.47 7.88449 55.9439 9.0075 55.9595 10.5789V20.9122C55.9673 23.9888 56.1779 25.7318 58.6072 25.7318Z" fill="#5B5747"/>
<path d="M64.9514 18.8222C65.2608 18.8223 65.5655 18.7454 65.8378 18.5983C66.1101 18.4513 66.3415 18.2387 66.5111 17.9799H66.6515C66.3193 18.5628 65.8362 19.0453 65.2529 19.3768C64.6696 19.7082 64.0078 19.8763 63.337 19.8633C61.3444 19.8633 59.6326 18.7676 59.6326 16.3266V9.36233H58.5642V9.19465L62.9588 4.74939H63.1265V8.28611H66.3161L65.9262 9.35453H63.146V16.4475C63.1265 17.5042 63.801 18.8222 64.9514 18.8222Z" fill="#5B5747"/>
<path d="M71.3855 8.25884C70.6563 8.25884 70.1806 8.96072 70.1806 9.6899C70.1806 10.8597 72.0873 11.4329 73.8031 12.3025C75.2068 13.0316 76.4975 13.987 76.4975 15.7261C76.5032 16.265 76.4022 16.7998 76.2003 17.2995C75.9984 17.7993 75.6997 18.2541 75.3214 18.638C74.943 19.0218 74.4924 19.3269 73.9956 19.5359C73.4988 19.7449 72.9656 19.8535 72.4266 19.8555C70.7694 19.8555 69.1394 19.4071 68.3557 18.7598V14.6694H68.5506C69.0848 16.1004 70.6563 19.6372 72.68 19.6372C73.0558 19.6259 73.4118 19.4661 73.6699 19.1927C73.928 18.9193 74.067 18.5546 74.0565 18.1788C74.0565 16.3539 72.3681 15.7066 70.7966 14.9189C69.3929 14.2171 68.0476 13.4333 68.0476 11.5811C68.0476 9.44425 69.9973 7.8728 72.1185 7.8728C73.1859 7.88919 74.2344 8.15634 75.1795 8.65267L75.6007 12.244L75.4291 12.2752C74.7779 10.9065 73.0622 8.25884 71.3855 8.25884Z" fill="#5B5747"/>
<path d="M5.84106 40.8146V40.6235C7.01087 40.6235 8.33665 40.0932 8.33665 38.7713V24.2462C8.33665 22.9282 7.01867 22.3394 5.84106 22.3394V22.1717H12.6064C12.6064 22.1717 14.8525 22.0275 16.2835 22.0275C20.6079 22.0275 25.0727 25.9034 25.0727 31.5185C25.0727 37.1336 21.3098 40.8146 15.7805 40.8146H5.84106ZM14.4859 22.2536C13.831 22.2538 13.1777 22.3204 12.5363 22.4525V38.7908C12.5636 40.1127 13.0978 40.5611 13.8269 40.5884H15.0318C17.9525 40.5884 20.4247 38.822 20.4247 31.4639C20.4402 24.2462 17.1258 22.2536 14.4859 22.2536V22.2536Z" fill="#5B5747"/>
<path d="M34.7004 29.019C35.2044 29.0333 35.6824 29.2463 36.0301 29.6115C36.3778 29.9767 36.567 30.4645 36.5565 30.9687C36.5565 31.9825 36.1042 33.0743 35.0669 33.0743C33.6632 33.0743 33.5072 31.7017 32.7273 31.7017C32.197 31.7017 31.7174 32.5713 31.7174 33.3278V38.7479C31.7174 40.0659 32.0254 40.6001 33.2069 40.6001V40.8262H26.7574V40.6001C27.9272 40.6001 28.2431 40.0659 28.2431 38.7479V32.6259C28.2431 31.7563 26.9524 30.9999 26.5312 30.7464V30.5475C28.8709 30.2668 31.5575 28.9878 31.5575 28.9878H31.7252V31.8538C32.119 31.0428 33.1017 29.019 34.7004 29.019Z" fill="#5B5747"/>
<path d="M41.2161 34.1856C41.2434 36.572 42.6471 38.6231 45.5053 38.6231C46.6284 38.6231 47.845 37.9758 48.2856 37.3051C48.4533 37.0517 48.4845 36.884 48.6248 36.884C48.7652 36.884 48.7925 36.9932 48.7925 37.079C48.3714 38.9311 46.4061 41.1772 43.9339 41.1772C40.5103 41.1772 37.7573 38.7089 37.7573 35.2541C37.7573 31.7992 40.8183 29.1906 43.6804 29.1906C46.4334 29.1906 48.6794 31.6588 48.6794 34.1856H41.2161ZM45.5677 33.9361C45.5677 32.1658 45.3416 29.3855 43.6843 29.3855C41.4968 29.3855 41.2161 31.885 41.2161 33.9361H45.5677Z" fill="#5B5747"/>
<path d="M61.8788 39.6916C61.9334 39.6916 61.9646 39.7189 61.9646 39.7461C61.9646 39.8319 61.1497 41.1226 59.2351 41.1226C58.7189 41.1218 58.219 40.9422 57.8202 40.6146C57.4214 40.2869 57.1484 39.8312 57.0475 39.325C55.8387 40.335 54.8288 41.1772 53.1131 41.1772C51.6547 41.1772 50.3835 40.0542 50.3835 38.6504C50.3835 36.3771 54.9614 35.141 57.0124 34.2442V30.5944C56.9914 30.3027 56.8574 30.0307 56.6389 29.8363C56.4205 29.6418 56.1348 29.5403 55.8426 29.5532C55.3396 29.5532 54.0723 30.3682 54.0723 31.3508C54.0994 32.1061 54.0246 32.8616 53.8501 33.5969C53.5966 34.4976 53.0351 35.1566 51.9394 35.1566C51.7336 35.1553 51.5302 35.1124 51.3414 35.0305C51.1526 34.9486 50.9822 34.8295 50.8406 34.6802C50.699 34.5309 50.5889 34.3545 50.5171 34.1617C50.4452 33.9688 50.4131 33.7635 50.4225 33.5579C50.4225 32.6025 51.4364 31.538 52.8674 30.6373C54.1308 29.8574 55.7023 29.1789 57.1918 29.1789C58.7516 29.1789 60.4478 30.1615 60.4478 31.5185V38.9039C60.4478 39.5512 60.6427 40.14 61.0093 40.14C61.5981 40.14 61.7931 39.6916 61.8788 39.6916ZM53.9319 38.007C53.9319 38.9312 54.4389 39.8865 55.3942 39.8865C56.1507 39.8865 56.564 39.4381 57.0202 38.9585V34.4976C54.6182 35.3945 53.9319 36.2094 53.9319 38.007Z" fill="#5B5747"/>
<path d="M78.6967 32.7819C78.6967 31.4366 78.1352 30.5944 77.0667 30.5944C76.1426 30.5944 75.6357 31.0701 74.9611 31.6589C74.9611 31.7447 74.9884 31.7993 74.9884 31.885V38.7362C74.9884 40.0542 75.3003 40.5884 76.4779 40.5884V40.8146H70.0206V40.5884C71.1904 40.5884 71.5101 40.0542 71.5101 38.7362V32.7819C71.5101 31.4366 70.9486 30.5944 69.8802 30.5944C68.9522 30.5944 68.4764 31.0428 67.8019 31.6316V38.7362C67.8019 40.0542 68.1099 40.5884 69.2914 40.5884V40.8146H62.8341V40.5884C64.0039 40.5884 64.3197 40.0542 64.3197 38.7362V32.7819C64.3197 31.9123 63.029 31.1559 62.6079 30.9024V30.7035C64.9475 30.4267 67.6342 29.1438 67.6342 29.1438H67.8019V31.265C68.6714 30.5905 70.5821 29.1867 72.0405 29.1867C72.6875 29.1722 73.3209 29.3741 73.8401 29.7605C74.3593 30.1469 74.7346 30.6957 74.9065 31.3196C75.7214 30.6724 77.714 29.1867 79.2309 29.1867C80.9154 29.1867 82.1788 30.4774 82.1788 31.8811V42.2144C82.1788 45.3027 82.3386 47.0418 84.7601 47.0418C84.9983 47.056 85.2368 47.0229 85.4621 46.9444C85.6873 46.8659 85.8947 46.7435 86.0724 46.5843C86.2501 46.4251 86.3944 46.2323 86.4972 46.0171C86.5999 45.8018 86.6589 45.5683 86.6708 45.33C86.6708 44.6008 86.082 44.3474 86.082 43.6182C86.0766 43.3858 86.1187 43.1548 86.2058 42.9393C86.293 42.7238 86.4233 42.5284 86.5887 42.3651C86.7542 42.2019 86.9513 42.0742 87.1679 41.9899C87.3846 41.9057 87.6162 41.8666 87.8484 41.8752C88.8896 41.8752 89.7981 42.5498 89.7981 43.5909C89.7981 46.0592 87.439 47.463 84.9707 47.463C80.7594 47.463 78.6811 43.5051 78.6811 40.5572L78.6967 32.7819Z" fill="#5B5747"/>
<path d="M87.4821 29.5844C86.7529 29.5844 86.2772 30.2824 86.2772 31.0154C86.2772 32.1853 88.184 32.7546 89.8958 33.6241C91.3035 34.3572 92.5942 35.3086 92.5942 37.0517C92.5993 37.5886 92.4986 38.1214 92.2977 38.6194C92.0968 39.1174 91.7998 39.571 91.4235 39.9541C91.0472 40.3373 90.5992 40.6425 90.1049 40.8523C89.6106 41.0622 89.0797 41.1726 88.5427 41.1772C86.8855 41.1772 85.2556 40.7287 84.4679 40.0854V35.9832H84.6434C85.1776 37.4143 86.749 40.9549 88.7689 40.9549C88.9555 40.9499 89.1392 40.908 89.3096 40.8317C89.4799 40.7553 89.6334 40.6461 89.7614 40.5102C89.8893 40.3742 89.9891 40.2144 90.055 40.0398C90.1209 39.8651 90.1516 39.6792 90.1454 39.4927C90.1454 37.6678 88.4609 37.0244 86.8894 36.2367C85.4857 35.5348 84.1365 34.7471 84.1365 32.8949C84.1365 30.762 86.0862 29.1906 88.2074 29.1906C89.2749 29.2058 90.3237 29.473 91.2684 29.9704L91.6895 33.5656L91.5219 33.5929C90.8824 32.2204 89.1666 29.5844 87.4821 29.5844Z" fill="#5B5747"/>
<path d="M94.6709 14.5288C94.6709 14.2281 94.6709 13.8521 94.6709 13.8521H88.8814C88.8814 13.8521 88.8814 14.0025 88.8814 14.5288C90.7862 14.5288 91.4128 15.6567 90.7862 17.5113C90.6358 18.0376 90.4353 18.4887 90.2599 18.8647C88.8564 17.4862 87.2524 15.406 85.498 13.3509C87.1772 12.975 88.9065 11.396 89.0569 9.51632C89.3075 6.60906 87.0769 5.23061 84.0443 5.23061C80.7862 5.23061 78.9566 6.73437 78.9817 9.16544C78.9817 11.0201 79.9842 12.6742 81.5631 14.2532C78.9065 15.005 77.4529 16.7343 77.4529 18.7644C77.4529 21.4461 80.3852 23.0251 84.2448 23.0251C86.3752 23.0251 87.904 22.3233 88.4052 22.0476C89.1321 22.5739 90.1095 23.0251 91.3125 23.0251C93.5932 23.0251 94.3701 21.4962 94.6208 20.5689L94.1195 20.1679C93.2173 20.9449 92.1145 20.5188 90.8614 19.416C91.112 18.9148 91.3877 18.2882 91.6383 17.5364C92.0894 16.1078 92.7661 14.5288 94.6709 14.5288ZM83.919 5.93236C85.1471 5.93236 85.6985 7.26068 85.7235 8.76444C85.7235 10.193 85.4479 11.772 84.9215 12.6491C83.9441 11.4963 82.8664 10.0677 82.4153 8.68925C81.889 7.11031 82.5155 5.93236 83.919 5.93236ZM82.2148 15.0301C83.0418 16.1078 85.4729 18.9399 87.2524 21.0201C87.3526 21.1454 87.503 21.2957 87.6534 21.4461C82.7411 22.5489 79.9842 16.9599 82.2148 15.0301Z" fill="#5B5747"/>
<path d="M24.4117 51.4314H22.7831V53.1454H22.2713V49.2643H24.6756V49.6855H22.7831V51.0129H24.4117V51.4314ZM30.4578 51.3301C30.4578 51.7104 30.3938 52.0427 30.2659 52.3271C30.1379 52.6096 29.9567 52.8255 29.7221 52.9748C29.4875 53.1241 29.2139 53.1987 28.9011 53.1987C28.5954 53.1987 28.3244 53.1241 28.0881 52.9748C27.8518 52.8237 27.6678 52.6096 27.5363 52.3324C27.4066 52.0534 27.34 51.7309 27.3364 51.3648V51.0849C27.3364 50.7117 27.4013 50.3821 27.531 50.096C27.6607 49.8099 27.8438 49.5913 28.0801 49.4402C28.3182 49.2874 28.5901 49.211 28.8958 49.211C29.2068 49.211 29.4804 49.2865 29.7168 49.4376C29.9549 49.5868 30.1379 49.8045 30.2659 50.0906C30.3938 50.375 30.4578 50.7064 30.4578 51.0849V51.3301ZM29.9487 51.0796C29.9487 50.6193 29.8563 50.2666 29.6715 50.0213C29.4866 49.7743 29.2281 49.6508 28.8958 49.6508C28.5723 49.6508 28.3173 49.7743 28.1307 50.0213C27.9459 50.2666 27.8509 50.6078 27.8455 51.0449V51.3301C27.8455 51.7762 27.9388 52.1271 28.1254 52.383C28.3138 52.6371 28.5723 52.7642 28.9011 52.7642C29.2316 52.7642 29.4875 52.6443 29.6688 52.4044C29.85 52.1627 29.9433 51.817 29.9487 51.3674V51.0796ZM36.0161 49.6855H34.7686V53.1454H34.2594V49.6855H33.0146V49.2643H36.0161V49.6855ZM41.6863 51.3301C41.6863 51.7104 41.6223 52.0427 41.4943 52.3271C41.3664 52.6096 41.1851 52.8255 40.9506 52.9748C40.716 53.1241 40.4423 53.1987 40.1296 53.1987C39.8239 53.1987 39.5529 53.1241 39.3166 52.9748C39.0802 52.8237 38.8963 52.6096 38.7648 52.3324C38.6351 52.0534 38.5684 51.7309 38.5649 51.3648V51.0849C38.5649 50.7117 38.6297 50.3821 38.7595 50.096C38.8892 49.8099 39.0722 49.5913 39.3086 49.4402C39.5467 49.2874 39.8186 49.211 40.1242 49.211C40.4352 49.211 40.7089 49.2865 40.9452 49.4376C41.1834 49.5868 41.3664 49.8045 41.4943 50.0906C41.6223 50.375 41.6863 50.7064 41.6863 51.0849V51.3301ZM41.1771 51.0796C41.1771 50.6193 41.0847 50.2666 40.8999 50.0213C40.7151 49.7743 40.4565 49.6508 40.1242 49.6508C39.8008 49.6508 39.5458 49.7743 39.3592 50.0213C39.1744 50.2666 39.0793 50.6078 39.074 51.0449V51.3301C39.074 51.7762 39.1673 52.1271 39.3539 52.383C39.5423 52.6371 39.8008 52.7642 40.1296 52.7642C40.4601 52.7642 40.716 52.6443 40.8973 52.4044C41.0785 52.1627 41.1718 51.817 41.1771 51.3674V51.0796ZM47.5031 52.6363C47.3716 52.8246 47.1877 52.9659 46.9513 53.0601C46.7167 53.1525 46.4431 53.1987 46.1303 53.1987C45.814 53.1987 45.5332 53.1249 45.288 52.9775C45.0428 52.8282 44.8526 52.6167 44.7176 52.343C44.5843 52.0694 44.5159 51.7522 44.5123 51.3914V51.0529C44.5123 50.4683 44.6483 50.0151 44.9201 49.6935C45.1938 49.3718 45.5776 49.211 46.0717 49.211C46.4768 49.211 46.8029 49.315 47.0499 49.5229C47.2969 49.729 47.448 50.0222 47.5031 50.4025H46.9913C46.8953 49.8889 46.5897 49.6322 46.0743 49.6322C45.7314 49.6322 45.471 49.753 45.2933 49.9947C45.1174 50.2346 45.0285 50.5829 45.0268 51.0396V51.3568C45.0268 51.7922 45.1263 52.1387 45.3253 52.3964C45.5243 52.6523 45.7936 52.7802 46.133 52.7802C46.3249 52.7802 46.4928 52.7589 46.6368 52.7162C46.7807 52.6736 46.8998 52.6016 46.994 52.5003V51.6287H46.0957V51.2128H47.5031V52.6363ZM51.9658 51.5754H51.0542V53.1454H50.5397V49.2643H51.8245C52.2617 49.2643 52.5975 49.3638 52.8321 49.5629C53.0684 49.7619 53.1866 50.0515 53.1866 50.4318C53.1866 50.6735 53.1209 50.8841 52.9894 51.0636C52.8596 51.2431 52.6784 51.3772 52.4456 51.4661L53.3572 53.1134V53.1454H52.8081L51.9658 51.5754ZM51.0542 51.1569H51.8405C52.0946 51.1569 52.2963 51.0911 52.4456 50.9596C52.5966 50.8281 52.6722 50.6522 52.6722 50.4318C52.6722 50.1919 52.6002 50.008 52.4563 49.8801C52.3141 49.7521 52.108 49.6872 51.8378 49.6855H51.0542V51.1569ZM58.2331 52.1325H56.6071L56.2419 53.1454H55.7141L57.1962 49.2643H57.644L59.1287 53.1454H58.6036L58.2331 52.1325ZM56.7617 51.7113H58.0812L57.4201 49.896L56.7617 51.7113ZM63.9753 51.4314H62.3466V53.1454H61.8348V49.2643H64.2392V49.6855H62.3466V51.0129H63.9753V51.4314ZM67.585 53.1454H67.0732V49.2643H67.585V53.1454ZM72.898 52.1325H71.272L70.9068 53.1454H70.379L71.8611 49.2643H72.3089L73.7936 53.1454H73.2685L72.898 52.1325ZM71.4266 51.7113H72.7461L72.085 49.896L71.4266 51.7113Z" fill="#5B5747"/>
<path d="M18.4438 51.9004H5.84106" stroke="#5B5747" stroke-width="0.194968" stroke-miterlimit="10"/>
<path d="M92.5942 51.9004H79.9875" stroke="#5B5747" stroke-width="0.194968" stroke-miterlimit="10"/>
</svg>
